<?xml version="1.0" encoding="UTF-8"?>
<svg xmlns="http://www.w3.org/2000/svg" width="1200" height="630" viewBox="0 0 1200 630" role="img" aria-label="The Angel You Need — Gabriel Miro">
  <defs>
    <linearGradient id="sky" x1="0" y1="0" x2="0" y2="1">
      <stop offset="0" stop-color="#7DC4F0"/>
      <stop offset="1" stop-color="#FFD97A"/>
    </linearGradient>
    <radialGradient id="glow" cx="0.72" cy="0.22" r="0.7">
      <stop offset="0" stop-color="#FFFBF0" stop-opacity="0.5"/>
      <stop offset="1" stop-color="#FFFBF0" stop-opacity="0"/>
    </radialGradient>
  </defs>
  <rect width="1200" height="630" fill="url(#sky)"/>
  <rect width="1200" height="630" fill="url(#glow)"/>
  <g opacity="0.28" transform="translate(880, 430)">
    <path d="M 0 40 C -24 40 -30 12 -10 2 C -20 -14 2 -28 20 -20 C 24 -36 60 -40 76 -22 C 92 -36 124 -30 130 -6 C 156 -6 160 22 140 32 C 138 50 110 52 96 42 C 80 54 50 54 42 42 C 22 50 -2 48 0 40 Z" fill="#FFFBF0" stroke="#1A1613" stroke-width="2.5"/>
  </g>
  <g transform="translate(100, 120)">
    <ellipse cx="0" cy="0" rx="28" ry="6" fill="#FFD93D" stroke="#1A1613" stroke-width="2"/>
  </g>
  <text x="100" y="290" font-family="Impact, 'Arial Black', sans-serif" font-size="22" fill="#1A1613" letter-spacing="2" opacity="0.7">INTERACTIVE PORTFOLIO</text>
  <text x="100" y="420" font-family="Impact, 'Arial Black', sans-serif" font-size="136" font-weight="700" fill="#1A1613" letter-spacing="1">The Angel You Need.</text>
  <text x="100" y="485" font-family="Georgia, 'Times New Roman', serif" font-size="32" fill="#1A1613" opacity="0.85">Gabriel Miro — Senior Full-Stack Engineer</text>
  <text x="100" y="530" font-family="Georgia, 'Times New Roman', serif" font-size="26" fill="#1A1613" opacity="0.75">Seven years helping SaaS products, APIs, and AI</text>
  <text x="100" y="562" font-family="Georgia, 'Times New Roman', serif" font-size="26" fill="#1A1613" opacity="0.75">features take flight.</text>
</svg>
