<?xml version="1.0" standalone="no"?>
<!DOCTYPE svg PUBLIC "-//W3C//DTD SVG 20010904//EN"
 "http://www.w3.org/TR/2001/REC-SVG-20010904/DTD/svg10.dtd">
<svg version="1.0" xmlns="http://www.w3.org/2000/svg"
 viewBox="95 162 1279 546"
 preserveAspectRatio="xMidYMid meet">
<metadata>
Created by potrace 1.16, written by Peter Selinger 2001-2019
</metadata>
<g transform="translate(0.000000,816.000000) scale(0.100000,-0.100000)"
fill="#87cbee" stroke="none">
<path d="M5635 6463 c-812 -47 -1455 -490 -1871 -1288 -78 -148 -142 -328
-204 -572 -11 -43 -11 -43 -136 -43 -140 0 -289 -29 -391 -75 -29 -14 -56 -25
-59 -25 -28 0 -191 -117 -268 -194 -202 -199 -316 -476 -316 -768 0 -5 -46 -8
-101 -8 -342 0 -682 -138 -930 -377 -215 -207 -322 -455 -335 -773 -18 -430
128 -767 426 -984 118 -86 122 -88 240 -135 202 -81 -214 -73 4155 -78 4090
-5 4110 -4 4245 38 64 21 77 21 1475 17 1410 -3 1410 -3 1495 31 749 301 835
1468 140 1898 -178 110 -322 160 -485 168 -90 5 -90 5 -102 105 -46 361 -358
726 -718 840 -94 30 -327 40 -403 17 -40 -11 -52 -12 -56 -2 -2 7 -23 65 -45
128 -288 813 -947 1312 -1786 1353 -617 30 -1202 -207 -1593 -646 -46 -52 -90
-98 -97 -103 -10 -5 -34 31 -86 130 -360 685 -846 1088 -1534 1272 -159 43
-528 91 -600 79 -5 -1 -32 -3 -60 -5z"/>
</g>
</svg>
