<?xml version="1.0" standalone="no"?>
<!DOCTYPE svg PUBLIC "-//W3C//DTD SVG 20010904//EN"
 "http://www.w3.org/TR/2001/REC-SVG-20010904/DTD/svg10.dtd">
<svg version="1.0" xmlns="http://www.w3.org/2000/svg"
 viewBox="52 55 1352 654"
 preserveAspectRatio="xMidYMid meet">
<metadata>
Created by potrace 1.16, written by Peter Selinger 2001-2019
</metadata>
<g transform="translate(0.000000,816.000000) scale(0.100000,-0.100000)"
fill="#87cbee" stroke="none">
<path d="M6100 7533 c-401 -61 -657 -152 -958 -342 -400 -252 -798 -748 -957
-1194 -18 -50 -37 -93 -43 -95 -6 -2 -59 19 -119 46 -206 94 -329 118 -558
109 -672 -26 -1177 -522 -1285 -1262 -19 -134 -10 -121 -92 -129 -517 -48
-1048 -435 -1303 -951 -148 -299 -190 -481 -190 -815 0 -313 47 -521 179 -795
175 -363 520 -680 886 -812 52 -19 131 -54 175 -78 163 -88 -370 -80 5120 -80
4850 0 4850 0 4935 39 47 21 102 40 122 42 23 2 56 17 85 38 26 19 82 55 123
80 83 49 137 99 219 201 30 36 72 75 93 86 22 11 53 35 71 53 24 25 54 41 117
61 47 15 108 37 135 50 28 12 68 28 90 35 22 7 63 25 91 41 29 16 83 42 121
58 179 73 472 319 586 491 300 454 311 938 33 1486 -156 308 -296 476 -530
638 -127 88 -305 147 -606 201 -139 24 -244 47 -313 66 -57 16 -61 30 -68 294
-10 332 -43 516 -145 810 -100 286 -191 454 -358 654 -557 672 -1464 926
-2249 630 -418 -158 -735 -395 -1034 -777 -136 -173 -136 -173 -202 -50 -76
140 -83 152 -199 303 -430 558 -1092 880 -1797 874 -82 -1 -161 -3 -175 -6z"/>
</g>
</svg>
