<?xml version="1.0" standalone="no"?>
<!DOCTYPE svg PUBLIC "-//W3C//DTD SVG 20010904//EN"
 "http://www.w3.org/TR/2001/REC-SVG-20010904/DTD/svg10.dtd">
<svg version="1.0" xmlns="http://www.w3.org/2000/svg"
 viewBox="29 43 1399 726"
 preserveAspectRatio="xMidYMid meet">
<metadata>
Created by potrace 1.16, written by Peter Selinger 2001-2019
</metadata>
<g transform="translate(0.000000,816.000000) scale(0.100000,-0.100000)"
fill="#87cbee" stroke="none">
<path d="M6323 7650 c-103 -8 -226 -24 -393 -51 -482 -78 -1121 -359 -1512
-665 -20 -16 -48 -38 -64 -49 -220 -160 -557 -492 -700 -690 -31 -44 -67 -91
-79 -105 -82 -95 -258 -417 -362 -665 -30 -71 -63 -149 -73 -171 -92 -203
-199 -688 -200 -908 0 -79 0 -79 -72 -72 -485 43 -866 -12 -1242 -181 -171
-77 -455 -251 -526 -323 -3 -3 -43 -38 -88 -79 -280 -250 -524 -661 -606
-1025 -101 -443 -33 -939 171 -1258 261 -406 670 -638 1248 -708 141 -17 2291
-18 2415 -1 160 22 1007 26 1072 5 25 -8 84 -19 130 -25 46 -5 103 -14 128
-20 25 -6 77 -14 115 -19 39 -4 145 -24 236 -44 277 -60 424 -65 1784 -60
1849 7 1835 6 2185 92 222 55 141 52 1440 53 1461 0 1798 11 1981 64 47 14
111 30 142 35 58 9 64 11 162 67 31 18 80 39 108 49 202 65 401 304 468 559
37 138 34 411 -5 540 -81 271 -267 520 -535 719 -145 108 -312 188 -416 201
-54 7 -54 7 -60 54 -16 128 -109 352 -227 549 -276 459 -801 783 -1394 863
-242 32 -689 -25 -907 -117 -53 -22 -79 -29 -82 -21 -2 7 -11 57 -20 112 -16
98 -34 185 -97 455 -58 251 -192 594 -334 850 -91 166 -297 471 -344 510 -3 3
-41 48 -85 100 -637 757 -1545 1233 -2605 1366 -147 18 -591 26 -757 14z"/>
</g>
</svg>
