<?xml version="1.0" standalone="no"?>
<!DOCTYPE svg PUBLIC "-//W3C//DTD SVG 20010904//EN"
 "http://www.w3.org/TR/2001/REC-SVG-20010904/DTD/svg10.dtd">
<svg version="1.0" xmlns="http://www.w3.org/2000/svg"
 viewBox="0 45 1456 693"
 preserveAspectRatio="xMidYMid meet">
<metadata>
Created by potrace 1.16, written by Peter Selinger 2001-2019
</metadata>
<g transform="translate(0.000000,816.000000) scale(0.100000,-0.100000)"
fill="#87cbee" stroke="none">
<path d="M6673 7624 c-122 -17 -286 -62 -368 -99 -16 -8 -55 -24 -85 -35 -322
-124 -721 -475 -919 -808 -34 -56 -61 -104 -61 -107 0 -2 -13 -33 -29 -68 -16
-35 -39 -94 -50 -132 -25 -80 -35 -95 -66 -95 -30 0 -95 -28 -95 -40 0 -6 -18
-10 -40 -10 -54 0 -120 -24 -220 -79 -47 -27 -116 -60 -155 -75 -74 -28 -87
-39 -249 -214 -107 -116 -256 -351 -256 -403 0 -5 -8 -28 -19 -52 -36 -82 -50
-135 -97 -367 -33 -165 -21 -145 -89 -145 -160 -1 -247 -76 -300 -258 -17 -59
-29 -71 -40 -38 -22 69 -258 172 -437 191 -562 59 -948 -106 -1227 -527 -200
-301 -301 -618 -313 -993 -3 -87 5 -83 -128 -60 -138 23 -443 -9 -615 -66
-470 -154 -772 -561 -792 -1064 -12 -309 53 -536 217 -755 155 -207 451 -380
780 -453 115 -26 115 -26 6385 -29 6904 -4 6357 -9 6533 56 350 129 591 492
595 896 2 177 -10 216 -127 407 -81 133 -273 280 -429 329 -156 49 -197 63
-277 99 -47 21 -98 41 -113 45 -16 3 -43 22 -60 41 -239 268 -311 339 -386
381 -36 20 -85 56 -109 80 -43 43 -44 43 -114 43 -57 0 -69 -3 -65 -14 4 -10
1 -13 -8 -10 -20 8 -41 59 -60 149 -95 437 -429 779 -852 871 -216 47 -566 -2
-715 -101 -65 -43 -75 -37 -83 53 -45 553 -351 1019 -789 1201 -184 77 -275
95 -466 96 -175 0 -175 0 -293 -38 -65 -21 -121 -36 -124 -34 -2 3 -8 58 -13
124 -5 65 -16 138 -25 163 -9 25 -18 56 -20 70 -10 78 -54 135 -188 244 -212
172 -386 222 -556 161 -54 -19 -50 -24 -97 120 -48 146 -144 366 -194 445
-213 332 -357 487 -610 657 -297 199 -734 299 -1087 247z"/>
</g>
</svg>
