<?xml version="1.0" standalone="no"?>
<!DOCTYPE svg PUBLIC "-//W3C//DTD SVG 20010904//EN"
 "http://www.w3.org/TR/2001/REC-SVG-20010904/DTD/svg10.dtd">
<svg version="1.0" xmlns="http://www.w3.org/2000/svg"
 viewBox="0 0 1456 816"
 preserveAspectRatio="xMidYMid meet">
<metadata>
Created by potrace 1.16, written by Peter Selinger 2001-2019
</metadata>
<g transform="translate(0.000000,816.000000) scale(0.100000,-0.100000)"
fill="#4e06ed" stroke="none">
<path d="M7155 8139 c-202 -80 -389 -221 -565 -429 -30 -36 -58 -67 -61 -70
-6 -5 -105 -136 -177 -236 -70 -95 -320 -489 -384 -603 -31 -56 -46 -84 -91
-159 -20 -35 -37 -65 -37 -67 0 -2 -15 -30 -34 -62 -18 -32 -76 -137 -128
-233 -53 -96 -104 -191 -115 -210 -11 -19 -55 -100 -98 -180 -43 -80 -95 -174
-115 -210 -20 -36 -56 -101 -80 -145 -98 -182 -115 -213 -151 -274 -22 -34
-39 -64 -39 -66 0 -6 -192 -339 -272 -470 -621 -1025 -1104 -1524 -1644 -1698
-126 -41 -237 -60 -477 -82 -316 -29 -454 -66 -695 -184 -89 -43 -262 -149
-318 -194 -526 -425 -979 -1034 -1370 -1843 -47 -98 -92 -190 -99 -204 -14
-28 -154 -355 -175 -410 -7 -19 -17 -39 -22 -44 -4 -6 -8 -23 -8 -38 0 -28 0
-28 7280 -28 7280 0 7280 0 7280 35 0 20 -6 46 -14 58 -8 12 -41 90 -74 172
-385 964 -963 1923 -1457 2421 -352 353 -652 526 -1036 595 -35 6 -194 15
-354 19 -343 9 -426 26 -661 134 -461 214 -975 839 -1494 1821 -151 285 -266
508 -455 880 -234 462 -376 738 -385 750 -4 6 -24 42 -45 80 -86 160 -231 400
-317 526 -32 46 -66 95 -75 109 -161 234 -399 443 -603 529 -96 40 -344 46
-435 10z"/>
</g>
</svg>
