<?xml version="1.0" standalone="no"?>
<!DOCTYPE svg PUBLIC "-//W3C//DTD SVG 20010904//EN"
 "http://www.w3.org/TR/2001/REC-SVG-20010904/DTD/svg10.dtd">
<svg version="1.0" xmlns="http://www.w3.org/2000/svg"
 viewBox="0 63 1456 753"
 preserveAspectRatio="xMidYMid meet">
<metadata>
Created by potrace 1.16, written by Peter Selinger 2001-2019
</metadata>
<g transform="translate(0.000000,816.000000) scale(0.100000,-0.100000)"
fill="#4e06ed" stroke="none">
<path d="M6905 7441 c-39 -18 -99 -76 -180 -174 -22 -27 -45 -54 -50 -60 -6
-7 -35 -46 -65 -87 -30 -41 -61 -82 -67 -90 -10 -12 -249 -333 -519 -696 -57
-76 -237 -312 -293 -385 -20 -25 -49 -63 -66 -85 -40 -52 -224 -273 -250 -300
-11 -12 -47 -50 -80 -84 -105 -110 -160 -135 -222 -101 -10 5 -45 21 -78 36
-54 23 -209 121 -243 153 -8 7 -30 22 -51 32 -40 22 -163 101 -269 172 -138
93 -225 127 -327 128 -51 0 -107 13 -198 46 -44 15 -51 15 -85 0 -20 -8 -59
-21 -87 -26 -63 -14 -219 -106 -299 -178 -33 -30 -84 -67 -112 -83 -53 -30
-208 -184 -334 -332 -85 -100 -86 -101 -309 -378 -195 -241 -244 -302 -251
-309 -3 -3 -41 -47 -85 -99 -256 -302 -480 -524 -619 -614 -28 -18 -73 -47
-99 -64 -203 -132 -482 -208 -847 -232 -140 -10 -691 -31 -789 -31 -31 0 -31
0 -31 -1800 l0 -1800 7280 0 7280 0 0 1918 c0 1917 0 1917 -113 1960 -61 24
-126 50 -143 57 -157 67 -388 85 -669 52 -285 -33 -722 -31 -890 4 -187 39
-501 175 -650 282 -233 167 -538 470 -788 782 -44 55 -94 116 -111 135 -18 19
-39 45 -47 58 -41 59 -323 387 -388 453 -63 63 -115 95 -251 159 -95 45 -95
45 -255 45 -175 -1 -231 -11 -360 -67 -122 -53 -449 -269 -604 -400 -150 -126
-320 -238 -365 -238 -10 0 -35 15 -55 33 -21 17 -60 50 -87 72 -177 144 -487
514 -734 880 -19 28 -38 55 -43 60 -4 6 -35 51 -68 100 -65 99 -84 126 -114
164 -11 14 -42 58 -68 96 -27 39 -57 81 -67 95 -10 14 -63 93 -117 175 -209
316 -373 513 -465 561 -59 30 -144 32 -203 5z"/>
</g>
</svg>
