<?xml version="1.0" standalone="no"?>
<!DOCTYPE svg PUBLIC "-//W3C//DTD SVG 20010904//EN"
 "http://www.w3.org/TR/2001/REC-SVG-20010904/DTD/svg10.dtd">
<svg version="1.0" xmlns="http://www.w3.org/2000/svg"
 viewBox="0 0 1456 816"
 preserveAspectRatio="xMidYMid meet">
<metadata>
Created by potrace 1.16, written by Peter Selinger 2001-2019
</metadata>
<g transform="translate(0.000000,816.000000) scale(0.100000,-0.100000)"
fill="#4e06ed" stroke="none">
<path d="M7180 8150 c-8 -4 -46 -23 -85 -41 -193 -90 -392 -269 -601 -539 -90
-116 -374 -552 -374 -573 0 -4 -17 -33 -37 -64 -21 -32 -44 -69 -50 -83 -7
-14 -17 -32 -23 -40 -5 -8 -33 -58 -61 -110 -28 -52 -66 -122 -84 -155 -50
-93 -209 -395 -325 -620 -145 -279 -197 -378 -255 -485 -34 -63 -84 -155 -110
-205 -61 -115 -259 -461 -311 -542 -127 -203 -362 -544 -393 -573 -3 -3 -26
-30 -51 -60 -325 -401 -646 -610 -934 -610 -149 0 -198 16 -436 143 -259 138
-419 164 -607 101 -205 -70 -415 -246 -628 -529 -33 -44 -63 -82 -66 -85 -5
-5 -138 -210 -191 -295 -24 -39 -52 -88 -108 -190 -15 -27 -43 -77 -62 -110
-19 -33 -58 -107 -87 -165 -30 -58 -57 -109 -61 -115 -4 -5 -28 -48 -52 -95
-25 -47 -66 -123 -90 -170 -25 -47 -73 -139 -107 -204 -34 -65 -72 -137 -85
-160 -13 -23 -51 -93 -84 -156 -33 -63 -71 -135 -85 -160 -13 -25 -41 -76 -62
-115 -21 -38 -41 -74 -45 -80 -4 -5 -31 -55 -60 -110 -29 -55 -61 -112 -71
-127 -11 -14 -19 -29 -19 -32 0 -3 -14 -29 -32 -58 -17 -29 -36 -62 -42 -73
-108 -191 -378 -615 -398 -623 -4 -2 -8 -12 -8 -23 0 -19 112 -19 7280 -19
7280 0 7280 0 7280 26 0 15 -7 32 -16 39 -9 6 -36 42 -59 81 -81 130 -342 569
-397 669 -31 55 -68 123 -83 150 -60 107 -182 333 -215 400 -19 39 -37 72 -40
75 -3 3 -29 52 -59 110 -30 58 -63 121 -74 140 -11 19 -49 91 -85 160 -81 157
-149 285 -225 425 -33 61 -83 155 -113 210 -77 145 -255 442 -322 538 -257
366 -436 541 -655 642 -234 107 -403 82 -732 -108 -220 -127 -339 -132 -539
-23 -153 84 -385 283 -512 439 -21 27 -49 58 -60 70 -78 79 -464 640 -529 767
-9 19 -23 42 -30 50 -7 8 -28 44 -47 80 -19 36 -49 89 -67 118 -17 29 -48 83
-68 120 -20 37 -47 85 -59 107 -13 22 -39 72 -60 110 -20 39 -91 174 -159 300
-67 127 -161 307 -210 400 -48 94 -90 175 -95 180 -4 6 -32 57 -62 115 -85
161 -123 230 -198 360 -20 36 -51 90 -67 120 -17 30 -54 93 -83 140 -29 47
-76 123 -105 170 -302 494 -615 822 -903 948 -72 32 -72 32 -255 31 -100 0
-189 -4 -197 -9z"/>
</g>
</svg>
