<?xml version="1.0" standalone="no"?>
<!DOCTYPE svg PUBLIC "-//W3C//DTD SVG 20010904//EN"
 "http://www.w3.org/TR/2001/REC-SVG-20010904/DTD/svg10.dtd">
<svg version="1.0" xmlns="http://www.w3.org/2000/svg"
 viewBox="0 0 49 49"
 preserveAspectRatio="xMidYMid meet">
<metadata>
Created by potrace 1.16, written by Peter Selinger 2001-2019
</metadata>
<g transform="translate(0.000000,49.000000) scale(0.100000,-0.100000)"
fill="#ffffff" stroke="none">
<path d="M213 406 c-11 -14 -26 -38 -32 -54 -8 -18 -28 -36 -56 -50 -78 -38
-77 -80 3 -116 29 -13 45 -29 57 -57 38 -83 80 -88 118 -12 17 33 37 53 73 72
69 38 69 72 1 110 -36 20 -56 41 -75 77 -32 58 -60 68 -89 30z"/>
</g>
</svg>
