<?xml version="1.0" standalone="no"?>
<!DOCTYPE svg PUBLIC "-//W3C//DTD SVG 20010904//EN"
 "http://www.w3.org/TR/2001/REC-SVG-20010904/DTD/svg10.dtd">
<svg version="1.0" xmlns="http://www.w3.org/2000/svg"
 viewBox="50 90 1369 590"
 preserveAspectRatio="xMidYMid meet">
<metadata>
Created by potrace 1.16, written by Peter Selinger 2001-2019
</metadata>
<g transform="translate(0.000000,816.000000) scale(0.100000,-0.100000)"
fill="#FFFFFF" stroke="none">
<path d="M7210 7184 c-14 -2 -65 -9 -115 -15 -665 -80 -1337 -507 -1629 -1036
-150 -271 -274 -678 -311 -1020 -4 -35 -8 -63 -10 -63 -1 0 -40 18 -87 40
-437 205 -1306 142 -1898 -138 -236 -111 -495 -301 -604 -442 -11 -14 -39 -47
-63 -74 -44 -50 -145 -211 -201 -323 -47 -92 -110 -290 -128 -398 -17 -100
-17 -100 -213 -101 -586 -3 -1085 -301 -1298 -775 -151 -338 -88 -777 146
-1006 140 -139 301 -246 436 -291 137 -45 164 -53 258 -72 260 -53 -57 -50
5914 -50 5863 0 5761 -1 5948 47 378 97 646 351 743 701 74 268 12 552 -197
897 -198 328 -628 555 -1061 559 -145 2 -145 2 -151 53 -48 390 -420 815 -847
968 -167 60 -310 97 -394 102 -78 5 -88 8 -88 25 0 65 -137 365 -213 466 -101
133 -295 309 -422 383 -286 167 -562 238 -1012 259 -111 6 -207 12 -215 14 -7
3 -32 10 -55 16 -24 6 -43 17 -43 24 0 51 -231 394 -374 556 -321 362 -755
591 -1271 670 -132 21 -478 36 -545 24z"/>
</g>
</svg>
