<?xml version="1.0" standalone="no"?>
<!DOCTYPE svg PUBLIC "-//W3C//DTD SVG 20010904//EN"
 "http://www.w3.org/TR/2001/REC-SVG-20010904/DTD/svg10.dtd">
<svg version="1.0" xmlns="http://www.w3.org/2000/svg"
 viewBox="67 106 1320 600"
 preserveAspectRatio="xMidYMid meet">
<metadata>
Created by potrace 1.16, written by Peter Selinger 2001-2019
</metadata>
<g transform="translate(0.000000,816.000000) scale(0.100000,-0.100000)"
fill="#FFFFFF" stroke="none">
<path d="M6350 7024 c-243 -28 -438 -68 -605 -126 -929 -318 -1569 -1087
-1667 -2000 -6 -62 -12 -114 -13 -116 -2 -1 -38 13 -81 32 -403 177 -809 165
-1196 -36 -369 -191 -621 -532 -711 -964 -42 -202 -35 -194 -183 -194 -477 0
-908 -285 -1078 -714 -234 -589 108 -1245 749 -1435 160 -47 215 -51 777 -51
530 0 530 0 609 -59 106 -80 185 -123 299 -163 95 -33 95 -33 3865 -36 2825
-2 3789 0 3845 9 201 31 399 112 514 212 58 50 58 50 680 54 671 5 739 9 885
60 621 213 930 865 682 1442 -143 335 -503 603 -870 649 -54 7 -54 7 -80 68
-119 276 -372 541 -649 679 -190 94 -355 139 -598 160 -70 7 -70 7 -83 53 -63
235 -315 585 -566 784 -377 298 -782 432 -1310 433 -315 0 -445 -18 -735 -105
-19 -5 -35 -10 -36 -10 -1 0 -4 22 -8 49 -18 140 -361 566 -626 779 -339 271
-769 456 -1230 527 -100 16 -496 29 -580 19z"/>
</g>
</svg>
