<?xml version="1.0" standalone="no"?>
<!DOCTYPE svg PUBLIC "-//W3C//DTD SVG 20010904//EN"
 "http://www.w3.org/TR/2001/REC-SVG-20010904/DTD/svg10.dtd">
<svg version="1.0" xmlns="http://www.w3.org/2000/svg"
 viewBox="51 89 1372 591"
 preserveAspectRatio="xMidYMid meet">
<metadata>
Created by potrace 1.16, written by Peter Selinger 2001-2019
</metadata>
<g transform="translate(0.000000,816.000000) scale(0.100000,-0.100000)"
fill="#FFFFFF" stroke="none">
<path d="M7196 7190 c-624 -60 -1193 -370 -1570 -854 -204 -261 -363 -588
-374 -768 -2 -49 -6 -88 -7 -88 -21 0 -199 -36 -255 -51 -433 -120 -855 -489
-1002 -876 -37 -96 -31 -94 -111 -44 -329 208 -715 249 -1077 114 -442 -165
-743 -568 -745 -995 0 -71 -2 -128 -5 -128 -3 0 -52 10 -110 21 -730 146
-1428 -440 -1351 -1134 75 -673 774 -1111 1451 -911 85 26 85 26 160 -4 41
-16 100 -35 130 -41 42 -9 1249 -11 5010 -9 4955 3 4955 3 5028 26 41 12 103
36 139 52 66 30 66 30 164 -4 620 -221 1304 121 1471 734 31 115 33 374 4 490
-115 455 -520 778 -1032 825 -104 9 -309 -17 -399 -51 -12 -5 -15 4 -15 57 -1
555 -569 1027 -1211 1007 -71 -2 -129 -4 -129 -3 0 0 7 22 15 48 52 173 13
456 -91 647 -310 568 -1082 832 -1742 594 -56 -20 -104 -35 -106 -33 -2 2 -32
65 -68 140 -36 75 -84 163 -107 197 -22 33 -41 64 -41 67 0 13 -93 132 -191
244 -440 504 -1171 795 -1833 731z"/>
</g>
</svg>
