<?xml version="1.0" standalone="no"?>
<!DOCTYPE svg PUBLIC "-//W3C//DTD SVG 20010904//EN"
 "http://www.w3.org/TR/2001/REC-SVG-20010904/DTD/svg10.dtd">
<svg version="1.0" xmlns="http://www.w3.org/2000/svg"
 viewBox="12 27 1433 758"
 preserveAspectRatio="xMidYMid meet">
<metadata>
Created by potrace 1.16, written by Peter Selinger 2001-2019
</metadata>
<g transform="translate(0.000000,816.000000) scale(0.100000,-0.100000)"
fill="#FFFFFF" stroke="none">
<path d="M8428 7809 c-148 -22 -293 -149 -329 -290 -9 -34 -18 -49 -30 -49
-106 0 -158 -315 -78 -472 20 -38 20 -38 -6 -48 -15 -6 -37 -10 -49 -10 -52 0
-164 -69 -221 -136 -185 -219 -224 -603 -75 -738 20 -18 43 -35 50 -38 15 -5
-7 -79 -25 -83 -5 -1 -39 -8 -74 -15 -285 -53 -507 -469 -421 -790 33 -123 32
-129 -12 -144 -160 -56 -289 -319 -275 -561 10 -153 49 -262 111 -310 35 -27
35 -27 -7 -108 -41 -80 -42 -84 -46 -199 -2 -85 -7 -118 -15 -118 -7 0 -48 9
-91 20 -50 13 -110 20 -169 20 -411 -1 -667 -289 -712 -800 -6 -75 -6 -75 -98
-75 -102 0 -143 -16 -217 -82 -33 -30 -44 -35 -58 -26 -10 6 -29 9 -43 6 -23
-4 -31 3 -69 59 -102 151 -213 211 -434 238 -175 22 -285 -22 -442 -173 -97
-94 -193 -250 -193 -316 0 -47 -14 -56 -42 -28 -41 41 -225 126 -298 137 -259
40 -497 -72 -627 -295 -44 -76 -118 -263 -157 -397 -16 -53 -29 -82 -38 -81
-7 1 -37 6 -67 12 -130 26 -224 6 -343 -75 -85 -57 -138 -88 -142 -82 -1 2
-13 21 -26 43 -105 178 -393 319 -705 345 -146 13 -204 -2 -388 -97 -145 -74
-276 -245 -309 -402 -15 -70 -25 -94 -61 -140 -54 -68 -62 -85 -72 -136 -4
-23 -25 -64 -51 -98 -24 -32 -46 -74 -50 -93 -8 -41 -24 -43 -102 -14 -67 26
-218 28 -289 4 -132 -44 -288 -205 -315 -325 -8 -37 -24 -66 -48 -92 -50 -55
-62 -81 -71 -165 -14 -128 9 -179 92 -202 29 -8 13072 -18 13942 -11 151 1
160 11 154 161 -6 146 -85 273 -185 297 -37 9 -37 9 -43 98 -22 308 -248 492
-516 421 -52 -14 -52 -14 -59 33 -8 64 -38 123 -73 144 -23 13 -30 26 -36 64
-25 166 -160 361 -302 436 -251 131 -558 66 -730 -155 -40 -52 -73 -74 -73
-49 0 19 -70 33 -133 26 -64 -7 -64 -7 -70 77 -12 151 -60 258 -185 406 -138
164 -425 236 -599 150 -38 -18 -71 -34 -74 -36 -4 -2 -26 36 -50 84 -107 217
-225 310 -431 339 -36 6 -36 6 -15 78 33 109 32 396 -1 517 -60 222 -183 375
-351 442 -59 23 -221 32 -267 15 -18 -6 -23 -3 -28 19 -4 14 -25 58 -48 98
-22 39 -40 82 -39 96 5 126 12 171 31 214 30 66 41 209 29 362 -19 248 -84
395 -213 481 -48 33 -64 37 -168 48 -65 7 -71 17 -84 125 -15 130 -63 244
-139 328 -47 52 -47 52 -18 89 128 165 174 367 136 588 -7 39 -17 106 -24 149
-20 143 -61 219 -180 337 -86 86 -143 109 -269 109 -103 0 -90 -22 -115 195
-32 277 -122 425 -261 425 -27 0 -34 4 -34 19 0 39 -39 109 -80 144 -69 59
-141 74 -262 56z"/>
</g>
</svg>
