<?xml version="1.0" standalone="no"?>
<!DOCTYPE svg PUBLIC "-//W3C//DTD SVG 20010904//EN"
 "http://www.w3.org/TR/2001/REC-SVG-20010904/DTD/svg10.dtd">
<svg version="1.0" xmlns="http://www.w3.org/2000/svg"
 viewBox="0 0 1445 786"
 preserveAspectRatio="xMidYMid meet">
<metadata>
Created by potrace 1.16, written by Peter Selinger 2001-2019
</metadata>
<g transform="translate(0.000000,816.000000) scale(0.100000,-0.100000)"
fill="#FFFFFF" stroke="none">
<path d="M3541 8140 c-1683 -132 -3117 -1361 -3456 -2961 -70 -329 -85 -491
-85 -901 0 -418 16 -597 79 -909 233 -1143 948 -2073 2000 -2601 761 -382
1611 -496 2456 -327 864 172 1718 695 2304 1411 98 120 119 140 169 163 104
48 175 109 317 275 430 502 744 754 1230 990 511 248 822 341 1433 430 301 44
338 60 242 107 -148 72 -650 123 -1225 123 -340 0 -383 5 -326 35 33 17 286
122 406 170 39 15 115 45 170 67 55 22 199 78 320 125 121 47 294 114 385 150
90 35 203 80 250 98 272 107 759 316 1100 473 1926 884 3079 1980 3080 2925 0
204 -72 211 -146 14 -284 -759 -1335 -1398 -2604 -1582 -433 -63 -749 -80
-1335 -72 -410 6 -570 13 -1170 52 -504 32 -579 36 -820 42 -542 12 -993 -52
-1182 -168 -19 -12 -35 -20 -37 -18 -2 2 -36 54 -76 114 -771 1160 -2176 1877
-3479 1775z"/>
</g>
</svg>
