<?xml version="1.0" standalone="no"?>
<!DOCTYPE svg PUBLIC "-//W3C//DTD SVG 20010904//EN"
 "http://www.w3.org/TR/2001/REC-SVG-20010904/DTD/svg10.dtd">
<svg version="1.0" xmlns="http://www.w3.org/2000/svg"
 viewBox="0 59 1456 757"
 preserveAspectRatio="xMidYMid meet">
<metadata>
Created by potrace 1.16, written by Peter Selinger 2001-2019
</metadata>
<g transform="translate(0.000000,816.000000) scale(0.100000,-0.100000)"
fill="#FFFFFF" stroke="none">
<path d="M7865 7486 c-180 -41 -273 -144 -471 -523 -31 -59 -64 -119 -74 -133
-9 -14 -24 -38 -32 -55 -8 -16 -38 -69 -66 -118 -60 -101 -153 -294 -171 -352
-7 -22 -35 -87 -63 -145 -28 -58 -58 -123 -68 -145 -59 -133 -119 -264 -167
-364 -30 -63 -68 -146 -84 -185 -15 -39 -56 -127 -90 -196 -33 -69 -69 -146
-79 -171 -10 -25 -27 -61 -37 -80 -11 -19 -27 -56 -38 -84 -10 -27 -29 -68
-43 -89 -13 -22 -46 -90 -72 -152 -26 -62 -57 -126 -69 -142 -11 -17 -21 -33
-21 -37 0 -8 -44 -101 -185 -390 -51 -104 -96 -201 -100 -215 -10 -33 -51
-104 -91 -157 -18 -23 -40 -63 -50 -90 -10 -26 -25 -59 -34 -73 -9 -14 -42
-72 -73 -130 -31 -58 -79 -133 -106 -167 -28 -34 -61 -84 -75 -110 -32 -64
-258 -269 -322 -293 -84 -32 -362 -2 -427 46 -18 13 -52 37 -77 54 -45 29 -54
37 -76 62 -7 7 -51 51 -99 98 -47 47 -96 101 -108 120 -20 33 -69 100 -96 131
-23 28 -61 86 -102 159 -23 41 -52 89 -63 105 -29 42 -40 60 -79 135 -19 36
-51 89 -71 119 -20 29 -36 57 -36 63 0 5 -27 59 -60 119 -34 60 -85 157 -115
217 -60 117 -121 221 -157 266 -13 16 -43 62 -68 102 -25 40 -61 94 -80 120
-19 25 -45 59 -57 75 -126 171 -268 259 -460 288 -216 33 -475 -124 -661 -401
-18 -27 -46 -68 -62 -93 -17 -24 -40 -64 -51 -87 -11 -24 -40 -77 -65 -118
-24 -41 -84 -154 -133 -250 -279 -552 -322 -635 -334 -649 -8 -9 -22 -36 -31
-61 -10 -25 -21 -49 -26 -55 -4 -5 -30 -53 -58 -105 -80 -153 -92 -173 -136
-221 -22 -26 -52 -63 -66 -84 -26 -40 -44 -59 -132 -142 -139 -131 -312 -119
-476 34 -46 43 -111 95 -145 115 -33 20 -79 56 -101 78 -59 60 -173 140 -210
147 -17 3 -37 10 -43 16 -7 5 -60 12 -118 15 -105 5 -105 5 -105 -1652 l0
-1656 7280 0 7280 0 0 1211 c0 1211 0 1211 -78 1288 -44 42 -87 92 -97 111
-10 19 -29 49 -42 65 -36 44 -143 209 -179 275 -17 32 -60 99 -95 149 -35 51
-68 100 -74 109 -5 9 -24 37 -41 62 -17 25 -53 81 -79 125 -27 44 -77 124
-112 177 -35 53 -63 101 -63 105 0 5 -21 34 -48 64 -26 29 -54 67 -62 83 -8
16 -30 46 -49 65 -19 20 -56 60 -83 90 -190 214 -525 281 -717 145 -149 -107
-357 -355 -514 -614 -21 -36 -52 -78 -68 -95 -15 -16 -35 -46 -43 -65 -8 -19
-34 -55 -58 -80 -40 -41 -128 -177 -128 -197 0 -5 -7 -18 -15 -28 -26 -35
-101 -149 -121 -185 -10 -19 -35 -55 -55 -80 -20 -25 -54 -73 -77 -107 -23
-34 -51 -68 -63 -76 -11 -8 -29 -32 -40 -53 -11 -22 -64 -81 -117 -132 -128
-124 -216 -162 -372 -162 -165 0 -278 45 -429 172 -88 73 -129 116 -148 153
-12 25 -40 69 -63 98 -22 30 -40 57 -40 62 0 4 -28 51 -62 104 -35 53 -69 105
-76 116 -6 11 -36 67 -66 125 -29 58 -63 123 -76 145 -13 22 -56 103 -95 180
-39 77 -79 154 -88 170 -40 71 -135 283 -142 315 -4 19 -25 71 -46 115 -21 45
-39 86 -39 93 0 12 -34 100 -66 170 -9 18 -22 56 -31 85 -8 29 -25 70 -37 92
-13 22 -32 66 -44 98 -26 69 -59 136 -78 157 -12 15 -41 87 -98 250 -37 104
-88 223 -107 251 -10 14 -21 38 -24 55 -11 48 -37 117 -55 144 -15 23 -29 60
-76 195 -9 28 -26 70 -37 95 -35 79 -138 334 -152 375 -7 22 -23 63 -35 90
-12 28 -33 79 -45 115 -51 142 -85 231 -105 269 -11 22 -20 46 -20 52 0 21
-169 364 -271 549 -22 41 -60 111 -84 155 -87 160 -274 236 -470 191z"/>
</g>
</svg>
