<?xml version="1.0" standalone="no"?>
<!DOCTYPE svg PUBLIC "-//W3C//DTD SVG 20010904//EN"
 "http://www.w3.org/TR/2001/REC-SVG-20010904/DTD/svg10.dtd">
<svg version="1.0" xmlns="http://www.w3.org/2000/svg"
 viewBox="0 0 1456 816"
 preserveAspectRatio="xMidYMid meet">
<metadata>
Created by potrace 1.16, written by Peter Selinger 2001-2019
</metadata>
<g transform="translate(0.000000,816.000000) scale(0.100000,-0.100000)"
fill="#FFFFFF" stroke="none">
<path d="M7350 8150 c-14 -5 -63 -21 -110 -35 -148 -47 -364 -165 -500 -274
-163 -129 -358 -319 -486 -472 -22 -26 -57 -69 -80 -95 -163 -196 -598 -825
-739 -1069 -11 -19 -49 -81 -84 -137 -35 -57 -137 -227 -228 -378 -90 -151
-168 -282 -173 -290 -5 -8 -66 -112 -135 -230 -162 -277 -248 -422 -365 -617
-52 -87 -106 -177 -120 -200 -473 -793 -934 -1384 -1335 -1712 -126 -103 -119
-98 -288 -205 -290 -183 -628 -270 -1057 -270 -310 1 -609 33 -1135 125 -60
11 -186 33 -280 49 -93 16 -185 32 -202 36 -33 7 -33 7 -33 -1185 l0 -1191
7280 0 7280 0 0 1220 c0 1072 -2 1220 -15 1220 -8 0 -65 -14 -127 -31 -105
-28 -211 -53 -368 -84 -834 -169 -1336 -96 -1925 280 -184 118 -540 439 -731
661 -122 141 -166 194 -195 232 -26 33 -133 172 -191 246 -59 75 -300 426
-393 571 -18 28 -58 90 -90 139 -32 49 -79 125 -105 170 -26 45 -103 174 -171
288 -130 217 -263 443 -314 534 -16 29 -59 104 -94 166 -35 62 -72 127 -82
144 -9 17 -37 64 -61 105 -64 107 -181 307 -209 356 -25 44 -62 106 -182 303
-504 826 -955 1348 -1326 1534 -160 81 -266 106 -445 105 -89 -1 -172 -5 -186
-9z"/>
</g>
</svg>
