<?xml version="1.0" encoding="UTF-8"?>
<svg id="Layer_1" xmlns="http://www.w3.org/2000/svg" version="1.1" viewBox="0 0 1024 1024">
  <!-- Generator: Adobe Illustrator 30.3.0, SVG Export Plug-In . SVG Version: 2.1.3 Build 182)  -->
  <defs>
    <style>
      .st0 {
        fill: #db8f16;
      }

      .st1 {
        fill: #fee888;
      }

      .st2 {
        fill: #f8be25;
      }

      .st3 {
        fill: #f9be1f;
      }

      .st4 {
        fill: #0f0d08;
      }

      .st5 {
        fill: #fdfdfd;
      }
    </style>
  </defs>
  <path class="st5" d="M0,48h1024v928H0V48ZM539.93,720.06h16.95s3.38-1.4,3.38-1.4l83.58-2.88c2.15-.93,4.45-1.42,7.02-1.68l34.55-3.47,6.1-1.64,26.3-3.36,6.61-1.81,19.36-3.64,21.63-4.91,19.71-4.44,5.66-2.04c4.57-1.65,9.92-1.98,14.43-3.53l14.28-4.91,15.66-4.99,13.29-4.96,11.74-4.34,11.16-4.63,10.53-5.26,7.85-3.71,9.91-5.1,8.9-5.09,8.39-5.01,6.28-4.46,7.85-5.38,6.14-4.71,7.27-5.84c14.89-11.96,33.01-35.23,38.58-53.6,5.24-17.3,6.45-35.39,1.85-52.83l-5.93-15.66-5.43-10.5c-2.88-5.57-6.42-10.29-10.66-15.02l-10.17-11.35-4.75-4.44-5.91-4.98-5.84-4.7-6.94-4.84-7.73-5.49-7.58-4.78-8.38-4.96-7.82-4.55-11.02-5.55-9.16-4.27-10.45-5.21c-4.16-2.08-8.28-3.24-12.52-4.99l-8.88-3.66-12.29-4.58-14.86-4.95-16.58-5-16.7-4.89-18.25-5.09-19.13-4.9-20.76-5.03c-8.05-3.19-17.05-2.71-25.58-4.56-2.66-.58-4.6-1.25-7.58-1.42l-53.09-3.08-7.57-1.32-25.87-1.57-49.74-2.15-5.33-1.25c-38.46-2.06-76.51-1.18-115.08-.38l-7.59,1.17-44.89,2.41-27.12,1.81-6.17,1.51-40.4,3.42-5.97,1.69-25.63,3.26-5.67,1.84-20.83,3.15c-2.39.36-4.46,1.76-7.04,2.2l-18.93,3.21-16.52,3.56c-2.41.52-4.09,1.31-6.39,1.87l-18.65,4.56-16.63,4.98-14.09,4.93c-3.7,2.26-7.99,2.43-11.81,4.3l-7.81,3.82-10.61,5.17c-2.35,1.14-4.89,2.84-7.27,4.19l-9.6,5.46-7.97,5.26-6.29,4.49c-2.05,1.46-4.2,2.95-6.1,4.69l-6.82,6.24c-7.61,6.95-13.85,14.39-19.84,22.63-3.08,4.24-5.06,8.69-7.57,13.23-11.13,20.08-12.93,47.99-6.32,69.67,4.2,13.79,9.86,26.41,19.31,37.29l13.8,15.88,4.65,4.42c2.01,1.91,3.83,3.2,5.94,5.03l6.1,5.28,6.25,4.63,6.77,4.92c2.41,1.75,4.86,3.41,7.43,4.96l8.2,4.93c2.87,1.73,5.09,3.31,7.77,4.77l9.16,4.97c3.6,1.95,7.26,3.85,10.93,5.6l9.59,4.56,10.85,4.86,9.92,4.23,10.36,4.11,14.07,4.94,13.41,4.88,15.07,4.79c4.99,2.4,10.24,3.02,15.59,4.31l3.26,1.72,17.51,4.26,19.99,4.87,22.45,5.04,23.65,4.56,5.95,1.57,24.46,3.89,33.64,4.59,6.11,1.29,44,3.53c2.49.2,4.64,1.37,7.57,1.49,25.66,1.08,50.7,2.77,76.34,2.32l3.04,1.51Z"/>
  <g>
    <path class="st4" d="M539.93,720.06l-3.04-1.51c-25.64.45-50.68-1.24-76.34-2.32-2.92-.12-5.07-1.29-7.57-1.49l-44-3.53-6.11-1.29-33.64-4.59-24.46-3.89-5.95-1.57-23.65-4.56-22.45-5.04-19.99-4.87-17.51-4.26-3.26-1.72c-5.35-1.28-10.6-1.91-15.59-4.31l-15.07-4.79-13.41-4.88-14.07-4.94-10.36-4.11-9.92-4.23-10.85-4.86-9.59-4.56c-3.67-1.75-7.34-3.65-10.93-5.6l-9.16-4.97c-2.68-1.45-4.9-3.04-7.77-4.77l-8.2-4.93c-2.57-1.54-5.02-3.2-7.43-4.96l-6.77-4.92-6.25-4.63-6.1-5.28c-2.11-1.82-3.93-3.11-5.94-5.03l-4.65-4.42-13.8-15.88c-9.45-10.87-15.11-23.5-19.31-37.29-6.61-21.68-4.81-49.59,6.32-69.67,2.52-4.54,4.49-8.99,7.57-13.23,5.99-8.24,12.23-15.67,19.84-22.63l6.82-6.24c1.91-1.74,4.06-3.23,6.1-4.69l6.29-4.49,7.97-5.26,9.6-5.46c2.38-1.35,4.92-3.05,7.27-4.19l10.61-5.17,7.81-3.82c3.82-1.87,8.11-2.04,11.81-4.3l14.09-4.93,16.63-4.98,18.65-4.56c2.3-.56,3.98-1.35,6.39-1.87l16.52-3.56,18.93-3.21c2.58-.44,4.65-1.84,7.04-2.2l20.83-3.15,5.67-1.84,25.63-3.26,5.97-1.69,40.4-3.42,6.17-1.51,27.12-1.81,44.89-2.41,7.59-1.17c38.58-.81,76.63-1.68,115.08.38l5.33,1.25,49.74,2.15,25.87,1.57,7.57,1.32,53.09,3.08c2.99.17,4.93.84,7.58,1.42,8.53,1.85,17.53,1.37,25.58,4.56l20.76,5.03,19.13,4.9,18.25,5.09,16.7,4.89,16.58,5,14.86,4.95,12.29,4.58,8.88,3.66c4.24,1.75,8.36,2.91,12.52,4.99l10.45,5.21,9.16,4.27,11.02,5.55,7.82,4.55,8.38,4.96,7.58,4.78,7.73,5.49,6.94,4.84,5.84,4.7,5.91,4.98,4.75,4.44,10.17,11.35c4.24,4.73,7.78,9.45,10.66,15.02l5.43,10.5,5.93,15.66c4.6,17.43,3.39,35.53-1.85,52.83-5.57,18.36-23.69,41.63-38.58,53.6l-7.27,5.84-6.14,4.71-7.85,5.38-6.28,4.46-8.39,5.01-8.9,5.09-9.91,5.1-7.85,3.71-10.53,5.26-11.16,4.63-11.74,4.34-13.29,4.96-15.66,4.99-14.28,4.91c-4.51,1.55-9.86,1.88-14.43,3.53l-5.66,2.04-19.71,4.44-21.63,4.91-19.36,3.64-6.61,1.81-26.3,3.36-6.1,1.64-34.55,3.47c-2.57.26-4.88.75-7.02,1.68l-83.58,2.88-3.38,1.41h-16.95ZM405.55,353.32l-7.53.72-20.65,1.52c-2.89.21-5.17,1.07-8.39,1.31l-47.14,3.46c-1.57.4-3.2,1.43-5.17,1.66l-28.85,3.37c-1.64.19-3.15,1.55-4.98,1.77l-16.82,2.02c-3.34.4-6.03,1.73-9.07,2.49-7.87,1.97-15.85,1.73-23.45,4.2l-22.12,4.54c-2.68.55-4.99,2.34-7.95,2.74-5.04.69-9.62,2.39-14.45,3.78s-10.16,1.3-14.8,3.59l-14.59,4.58-8.87,3.57c-4.21,1.69-7.81,3.74-12.38,5.14-2.53.78-4.93,3.21-7.76,3.55-2.11.25-10.55,5.64-15.55,8.65l-7.76,4.69-7.46,5-7.71,5.62-5.36,4.6c-16.07,13.79-29.92,32.41-35.98,52.89-10.39,35.1,5.52,74.29,31.38,98.72l7.83,7.39c4.48,4.23,9.14,7.85,14.16,11.47l5.81,4.19c2.56,1.85,4.68,3.64,7.32,5.22l8.32,4.99c2.53,1.52,4.57,3.02,7.24,4.5l10.12,5.6c3.06,1.69,5.92,3.36,9.44,4.64l3.28,2.16,8.11,3.89,10.94,4.69,10.87,4.34,9.88,4.18c8.07,3.42,20.87,8.2,28.91,10.3,2.94.77,5.75,2.89,9.11,3.24s6.12,2.17,9.2,3.05l14.21,4.04,20.63,5.17,20.56,5.17,22.64,4.77,25.56,4.62,5.14,1.61,27.24,3.94,31.07,3.81c2.21.27,4.2,1.02,6.04,1.52l51.29,3.61c2.6.18,4.75.37,6.91,1.4,36.53,1.86,72.54,2.91,109.13,1.59l40.91-1.48c1.67-1.33,3.78-1.32,6-1.5l44.87-3.58,6.68-1.63,29.06-3.97,24.08-4.24,7.07-2.1c6.12-.79,12.26-2,18.22-3.42l22.08-5.24,17.53-4.91,16.03-4.68,14.24-4.92,14.56-5.28,11.25-3.88c2.89-.99,5.39-3.19,8.67-3.58,2.96-.35,5.14-2.15,7.49-3.32l8.76-4.4,9.51-4.71,11-5.7,7.23-4.35,8.79-5.43,6.97-4.58c2.88-1.9,5.28-3.24,7.69-5.77,1.42-1.5,3.87-2.09,5.13-4.13l3.68-2.73,5.25-4.79,10.78-10.72c8.01-9.41,15.34-19.21,20.23-30.46l6.06-17.97.49-16.91c.22-7.53-.28-14.48-3.03-21.45l-5.05-12.8-9.13-15.49-17.52-20.53c-3.98-4.67-8.73-7.86-13.49-11.5l-5.66-4.33-7.39-5.18-7.95-5.3-7.82-4.61-9.55-5.53-8.18-4.32-11.18-5.42-11.18-5.38c-1.68-.81-3.17-2.27-5.3-2.11l-5.04-1.54c-2.32.31-2.97-1.9-4.03-2.35l-13.04-5.48-9.38-3.15-15.49-5.24-16.03-4.75-17.44-5.02-18.29-4.95-19.99-4.92-20.91-4.93c-9.19-2.16-18.89-2.79-28.12-3.55l-6.33-.52c-.54-.04-1.98-.41-2.48-.19-2.58,1.11-4.93-1.22-6.91-1.36l-23.44-1.65-14.57-.61-26.1-1.19c-1.97-.09-3.73-.47-5.15-1.68l-38.99-1.91c-42.27-2.07-83.86-2.18-126.12-1.02l-37.55,1.04Z"/>
    <path class="st2" d="M405.55,353.32c-.02,1.38,2.51,1.2,3.35,1.79-2.4,8.98-9.91.79-16,6.71l-36.97,3.44-2.69,1.52c-10.77.38-20.87,2.09-31.61,3.04l-5.19,1.57-27.31,3.21-7.41,1.74-28.27,3.42c-2.16.26-3.35,1.11-5.29,1.51l-20.59,4.28c-6.25,2.52-12.56,3.38-19.26,4.07l-4.16,1.75c-6.55,1.5-13.53,1.52-19.6,4.5l-11.56,4.16c-7.03,2.53-16.34,6.98-18.67,7.18-3.16.27-5.42,2.56-7.95,3.49-4.82,1.78-8.82,3.58-13.21,5.97l-8.06,4.38-7.86,4.59c-3.01,1.75-5.42,3.17-8.17,5.31l-6.51,5.06c-2.36,1.83-4.46,3.72-6.55,5.93l-11.31,11.97c-.81.85.8,2.33,1.29,1.92l1.87-1.58c3.92-1.07,7.79-3.6,11.39-5.58,3.27-1.8,6.5-2.56,9.61-4.68l8.49-3.2c3.1-1.17,5.37-3.04,8.48-3.51-1.03,4.36,4.13,4.51,5.19,6.84.54,1.18,1.26,3.52-.45,4.05-1.13.35-2.22.34-2.48,1.27-.69,2.41,2.72,1.3,5.06,6.08l3.8,3.5c1.58,3.77,3.65,6.32,7.57,7.6,4.49,1.47,8.94,2.84,13.79,2.79l4.93-4.42c2.99.36,4.77,3.27,3.87,6.78,1.91.54,3.63-.08,5.42-.16-4.41,3.35-9.11,5.63-13.14,8.65l-6.62,4.98c-2.25,1.69-4.02,2.91-6.12,4.81-11.2,10.16-20.68,15.66-21.89,33.68-.28,4.12-1.65,8.39,1.18,12.46l2.34-16.26c1.02-7.1,6.04-12.45,11.01-17.47l2.26,11.84c1.61,8.44,14.53,21.34,23.25,27.5,1.68,1.18,4.03,2.86,5.43,4.34,2.43,2.56,5.71,3.13,8.12,5.16,4.97,4.18,23.87,13.39,31.2,15.64l7.74,3.76c3.91,1.9,8.04,2.84,11.7,4.96,1.82-.37,3.71.04,5.48.88l4.67,2.21c2.26,1.07,6.08,2.34,8.39,2.2,3.34-.2,4.11,1.7,5.89,2.4,1.52.6,3.99.87,5.78,1.8,1.43.75,4.96.25,6.42,1.75l3.14.05c.58,0,1.39,1.65,1.92,2.78,5.16-.97,10.1.96,15.19,2.11l20.93,4.72c6.58,1.48,13.27,2.74,20.1,3.68l5.88,1.79,28.17,3.27c2.5.29,4.49,1.06,6.76,1.55,13.07,2.82,26.23,2.7,39.55,4.23,2.52.29,4.65,1.5,7.58,1.63l65.53,2.83,6.13,1.57,64.01.87-44.7.47c1.57,1.9,5.17,2.79,7.01,2.49,3.85-.62,6.49.24,10.32.02l8.72-.52c5.37-.32,9.84.33,15,.72,2.43.18,4.73-1.46,7.38.72,3.7,3.04,5.55-4.71,14.32-1.22l5.85,2.33c-2.29,2.12-2.47,8-.16,9.17,5.91,3,4.56,9.79,20.91,6.39l4.62-6.64.79-6.54c.23-1.88,2.89-2.87,3.22-5.32l8.54.04c2.71,3.48,6.19,5.68,10.33,7.78,8.24-5.56,17.97-1.9,27.31-4.48,2.42-1.74,3.99-3.42,7.57-1.6l6.7,3.41c3.93,2,5.97.23,9.26.18l23.59-.37c.93.37,2.44,2.3,3.63,1.92l8.07-2.58c.45-.14,6.09,3.85,12.72-1.98,1.67-1.47,4.93-3.01,6.49-.74.22.86-.4,3.13,1.21,3.49.98.22,2.68,1.02,3.64-.05.88-.98.86-2.55.87-5.1,2.82,1.56,4.75,2.12,7.94.51l5.47,1.02c7.39-2.33,14.36,2.18,20.43-.4l9.28-3.93c2.55-1.08,2.67-4.8,4.27-6.54,6.44-6.99,9.65-4.3,15.11-8.3,2.3-1.68,5.72-2.14,7.36-5,1.15-1.99,1.58-3.79.28-5.32-2.93-3.45-6.02.86-8.56.18-2.95-.78.47-6.56-4.01-6.48l-5.26-.09,10.24-3.09,14.16-4.81,11.56-3.48-10.52,5.08c-.26,1.39-.69,3.2-3.23,3.55,1.93,1.57,2.12,3.7,2.91,5.62,1.12,2.7,4.37,1.74,6.26,1.36,5.13-1.02,6.68-4.03,7.43-8.85.46-2.96,1.89-5.87.57-8.72,3.08-1.76,6.51-3.05,10.55-3.26,2.38-2.7,5.31-4.44,9.18-4.92,2.2-2.95,5.99-3.43,8.9-5.16l8.92-5.3c1.84-1.09,3.33-3.14,5.38-3.49.42-.07.83-.53,1-.87.15-.09.4-.06.57-.07,2.26-.16,3.61-2.1,4.43-4.07.14-.09.41-.09.58-.12,2.02-.43,4.02-1.74,3.62-3.95,2.62-1.41,8.35-7.37,8.8-9.25,4.15,2.21,6.28,2.79,8.01,6.72.18.86-.18,1.85.65,2.58.09.36-.21,1.18.23,1.77.26.34.92.59,1.35.76,2,5.46,7.8,7.22,8.32,12.37l.97,9.64c-4.46-3.52-8.94-3.99-13.22-1.13-5.17,3.46-6.72,9.57-5.23,15.62.48,1.95-.54,4.61,1.17,6.38l10.7,11.07c1.26,1.31,3.72-.11,4.84-.85,4.95,2.42,10.34,2.54,15.8,2.57l7.67.05c-2.24,2.7-5.52,4.28-8.63,6.32l-7.6,4.98c-1.85,1.21-3.31,2.79-5.86,3.25l-6.12,3.6-9.88,5.09-10.79,5.15-9.48,3.77-10.93,4.95-13.08,5.1-12.76,4.68c-5.42,1.99-10.81,2.95-16.36,4.64-2.81.85-5.54,2.7-8.69,2.7-2.62,0-4.46,1.96-6.54,2.43l-19.88,4.54-23.2,5.01-27.26,5.11-28.73,4.71-10.44,1.82-17.47,1.09-29.96,1.25-60.78-.34-25.87-.78c-19.99-.6-39.5-.9-59.54-1.96-3.98-.21-7.09-.99-10.74-1.3l-54.85-4.68-39.77-4.57-6.06-1.39-27.34-3.99-26.41-4.53-5.74-1.74c-4.73-.42-9.15-1.88-13.72-2.79l-17.12-3.42-4.62-2.07c-7.03-1.03-13.08-3.3-19.81-5.09l-16.53-4.39-14.25-4.17c-2.78-.81-5.13-2.77-8.26-3.21-3.4-.48-6.13-2.05-9.16-3.26l-10.84-4.33-11.56-4.97-10.01-4.05c-3.21-1.3-5.84-2.91-9.03-4.52l-10.43-5.27c-2.79-1.41-5.71-3.13-8.45-4.77l-8.87-5.33-5.58-3.47-12.95-9.51-11.53-10.07-7.5-8.31-9.96-7.39c-1.12-.83-1.52-1.84-1.49-2.94.97.01,1.92-.06,2.39-.66s.52-1.71.29-2.36c-1.28-3.52-4.35-3.66-7.26-4.57s-5.17-2.47-8.45-2.31l-.19-4.84c-4.78-1.7-9.86-1.51-13.94.78l-9.25-1.57c-2.86-.49-4.2-2.15-5.73-4.48-1.42-2.15-5.07-1.55-6.91-.42s-2.22,3.94-2.07,6.34c.44,7.22,3.71,13.18,7.32,19.16,6.35,10.52,12.54,21.13,22.22,29.15l5.1,4.94c6.86,6.64,14.7,11.6,17.81,15.15,1.89,2.16,3.35,2.45,5.64,3.96l10.42,6.9c5.32,3.52,9.18,7.04,14.44,9.89l7.41,4c3.57,1.93,6.25,5.41,10.95,5.59.65.02.99.91.7,1.33-.23.35-.59.61-1.43.75l-3.28-2.16c-3.52-1.28-6.38-2.95-9.44-4.64l-10.12-5.6c-2.68-1.48-4.71-2.98-7.24-4.5l-8.32-4.99c-2.63-1.58-4.76-3.38-7.32-5.22l-5.81-4.19c-5.02-3.62-9.68-7.24-14.16-11.47l-7.83-7.39c-25.85-24.42-41.76-63.61-31.38-98.72,6.06-20.48,19.9-39.1,35.98-52.89l5.36-4.6,7.71-5.62,7.46-5,7.76-4.69c4.99-3.02,13.43-8.4,15.55-8.65,2.83-.33,5.23-2.77,7.76-3.55,4.57-1.4,8.16-3.44,12.38-5.14l8.87-3.57,14.59-4.58c4.64-2.29,9.85-2.17,14.8-3.59s9.41-3.1,14.45-3.78c2.96-.4,5.27-2.19,7.95-2.74l22.12-4.54c7.6-2.47,15.59-2.23,23.45-4.2,3.04-.76,5.72-2.08,9.07-2.49l16.82-2.02c1.84-.22,3.34-1.58,4.98-1.77l28.85-3.37c1.97-.23,3.6-1.26,5.17-1.66l47.14-3.46c3.22-.24,5.5-1.09,8.39-1.31l20.65-1.52,7.53-.72Z"/>
    <path class="st0" d="M79.05,536.96c-.24,3.53,3.37,7.54,3.26,13.18-.02,1.29-1.95,4.32-.62,5.51,3.26,2.91,7.61.89,10.52-1.26,4.04-2.97,9.54-3.52,13.98-3.46-.04,1.11.37,2.11,1.49,2.94l9.96,7.39,7.5,8.31,11.53,10.07,12.95,9.51,5.58,3.47,8.87,5.33c2.74,1.64,5.66,3.36,8.45,4.77l10.43,5.27c3.19,1.61,5.81,3.22,9.03,4.52l10.01,4.05,11.56,4.97,10.84,4.33c3.02,1.21,5.75,2.78,9.16,3.26,3.14.44,5.48,2.4,8.26,3.21l14.25,4.17,16.53,4.39c6.72,1.78,12.77,4.06,19.81,5.09l4.62,2.07,17.12,3.42c4.57.91,8.98,2.37,13.72,2.79l5.74,1.74,26.41,4.53,27.34,3.99,6.06,1.39,39.77,4.57,54.85,4.68c3.64.31,6.76,1.08,10.74,1.3,20.04,1.06,39.55,1.36,59.54,1.96l25.87.78,60.78.34,29.96-1.25,17.47-1.09,10.44-1.82,28.73-4.71,27.26-5.11,23.2-5.01,19.88-4.54c2.08-.48,3.92-2.43,6.54-2.43,3.15,0,5.88-1.85,8.69-2.7,5.56-1.69,10.94-2.66,16.36-4.64l12.76-4.68,13.08-5.1,10.93-4.95,9.48-3.77,10.79-5.15,9.88-5.09,6.12-3.6c2.55-.46,4.01-2.04,5.86-3.25l7.6-4.98c3.1-2.03,6.39-3.62,8.63-6.32,2.17.01,3.25-2.09,4.81-3.47l7.43-6.6c6.59-5.85,12.35-12.37,18.12-19.32l4.6-4.64c1.14-1.15,2.46-2.01,2.29-3.56,1.85-1.4,3.09-3.12,4.66-5.27l8.75-11.93,3.11-11.79c.15-.56.72-.77,1.05-.53l-.49,16.91-6.06,17.97c-4.88,11.25-12.22,21.05-20.23,30.46l-10.78,10.72-5.25,4.79-3.68,2.73c-1.26,2.04-3.71,2.63-5.13,4.13-2.41,2.53-4.8,3.88-7.69,5.77l-6.97,4.58-8.79,5.43-7.23,4.35-11,5.7-9.51,4.71-8.76,4.4c-2.35,1.18-4.53,2.97-7.49,3.32-3.28.39-5.78,2.59-8.67,3.58l-11.25,3.88-14.56,5.28-14.24,4.92-16.03,4.68-17.53,4.91-22.08,5.24c-5.96,1.42-12.1,2.63-18.22,3.42l-7.07,2.1-24.08,4.24-29.06,3.97-6.68,1.63-44.87,3.58c-2.22.18-4.33.17-6,1.5l-40.91,1.48c-36.6,1.32-72.6.27-109.13-1.59-2.16-1.03-4.31-1.22-6.91-1.4l-51.29-3.61c-1.84-.5-3.82-1.25-6.04-1.52l-31.07-3.81-27.24-3.94-5.14-1.61-25.56-4.62-22.64-4.77-20.56-5.17-20.63-5.17-14.21-4.04c-3.08-.88-5.81-2.69-9.2-3.05s-6.17-2.48-9.11-3.24c-8.04-2.1-20.84-6.88-28.91-10.3l-9.88-4.18-10.87-4.34-10.94-4.69-8.11-3.89c.84-.15,1.19-.4,1.43-.75.28-.42-.05-1.31-.7-1.33-4.7-.18-7.39-3.66-10.95-5.59l-7.41-4c-5.26-2.84-9.12-6.37-14.44-9.89l-10.42-6.9c-2.28-1.51-3.75-1.8-5.64-3.96-3.11-3.55-10.96-8.51-17.81-15.15l-5.1-4.94c-9.68-8.01-15.87-18.63-22.22-29.15-3.61-5.98-6.88-11.94-7.32-19.16-.14-2.4.17-5.16,2.07-6.34s5.49-1.74,6.91.42c1.53,2.33,2.87,3.99,5.73,4.48l9.25,1.57Z"/>
    <path class="st1" d="M684.39,361.7c-.3.76.33.93.9.9.54-.02,1.15-.14,1.58-.71l6.33.52c-.56,2.83,2.66,1.32,7.13,2.4,2.07,1.66,3.93,3.98,6.91,4.46.26.59.17,1.85-.12,2.33-5.73.89-9.8-1.1-8.87,1.84-.8-.17-1.71-.19-2.5-.11.14-.53.02-1.36-.52-1.61-.83-.38-1.67.47-2.19.82l-13.87-.85c.18-.77-.2-1.49-.65-1.5l-1.86-.04-11.78-1-17.79-1.71c-3.89-.37-7.06-.75-10.59-.42-8.11.76-13.61-2.37-17.16-2.55l-40.11-2.02-115.33,1.64-25.87.77c-2.91.09-4.97.88-7.56,1.43-6.98,1.49-14.14-.34-21.06,1.7.95,1.29,2.24,2.49,2.05,3.23s-1.44,1.52-2.33,1.66l-16.59,2.58c-2.15.33-3.51,1.41-6.1,1.63l-31.52,2.61c-2.17.18-3.49,1.31-5.3,1.49l-19.12,1.88-16.42,2.71-27.31,4.08-9.35,2.12-19.53,3.26c-1.65.28-2.94,1.79-5.03,1.73-2.54-.08-4.94,1.07-6.94,1.86-.62.05-1.7-.23-2.4.07-1.41-.21-3.33.05-3.52,1.68-6.22,1.39-13.48,2.31-19.97,4.11l-18.85,5.22-15.06,4.13c-2.88.79-5.14,2.82-8.44,3.14-4.09.39-7.59,2-11.13,3.68s-7.81,1.62-11.23,3.89l-11.55,4.24c-3.52,2.16-6.93,3.52-10.93,4.92-2.39.84-4.61,2.95-7,3.31-3.11.47-5.37,2.34-8.48,3.51l-8.49,3.2c-3.1,2.12-6.34,2.88-9.61,4.68-3.6,1.98-7.47,4.51-11.39,5.58l-1.87,1.58c-.49.41-2.1-1.06-1.29-1.92l11.31-11.97c2.09-2.21,4.19-4.1,6.55-5.93l6.51-5.06c2.75-2.14,5.17-3.55,8.17-5.31l7.86-4.59,8.06-4.38c4.39-2.38,8.39-4.19,13.21-5.97,2.52-.93,4.79-3.22,7.95-3.49,2.33-.2,11.64-4.65,18.67-7.18l11.56-4.16c6.07-2.98,13.05-3,19.6-4.5l4.16-1.75c6.7-.69,13.01-1.55,19.26-4.07l20.59-4.28c1.93-.4,3.13-1.25,5.29-1.51l28.27-3.42,7.41-1.74,27.31-3.21,5.19-1.57c10.74-.95,20.84-2.65,31.61-3.04l2.69-1.52,36.97-3.44c6.09-5.92,13.61,2.26,16-6.71-.84-.58-3.37-.41-3.35-1.79l37.55-1.04c42.26-1.17,83.86-1.06,126.12,1.02l38.99,1.91c1.43,1.21,3.19,1.59,5.15,1.68l26.1,1.19,14.57.61,23.44,1.65c1.98.14,4.33,2.47,6.91,1.36Z"/>
    <path class="st2" d="M975.33,497.98c-2.46-.27-3.39-2.07-4.97-3.93-3.34-3.92-7.26-8.15-12.41-10.09-2.49-.94-6.55,3.92-5.32,6.2l3.53,6.59c.98,1.83,1.39,2.75,1.39,4.53-5.19-8.17-11.35-15.46-18.35-22.39l-5.13-5.08-20.6-15.75-6.14-3.82-10.01-5.77-7.95-4.44-6.82-2.95c.12-1.29-.58-2.18-1.78-2.82l-10.7-5.69-6.73-3.28-10.61-4.44-11.51-5.04-11.38-4.5c-2.11-.84-3.83-2.46-6.23-2.85-2.87-.46-4.83-2.42-7.36-3.35l-11.57-4.28-12-4.06-10.16-3.95c-2.44-.95-4.61-2.76-7.56-3.06-3.8-.38-6.86-2.57-10.29-3.59l-14.88-4.44-15.33-4.03c-2.71-.71-4.71-1.69-7.73-2.34l-11-2.35c-2.85-.61-4.4-.85-6.74-1.97-3.31-1.58-7.45-.91-10.73-1.59-.93-2.94,3.13-.95,8.87-1.84.29-.48.37-1.75.12-2.33-2.98-.48-4.84-2.8-6.91-4.46-4.47-1.08-7.7.43-7.13-2.4,9.23.76,18.93,1.39,28.12,3.55l20.91,4.93,19.99,4.92,18.29,4.95,17.44,5.02,16.03,4.75,15.49,5.24,9.38,3.15,13.04,5.48c1.06.44,1.71,2.66,4.03,2.35l5.04,1.54c2.13-.17,3.63,1.3,5.3,2.11l11.18,5.38,11.18,5.42,8.18,4.32,9.55,5.53,7.82,4.61,7.95,5.3,7.39,5.18,5.66,4.33c4.76,3.64,9.51,6.83,13.49,11.5l17.52,20.53,9.13,15.49Z"/>
    <path class="st3" d="M975.33,497.98l5.05,12.8c2.75,6.97,3.25,13.92,3.03,21.45-.32-.25-.9-.03-1.05.53l-3.11,11.79-8.75,11.93c-1.57,2.14-2.81,3.87-4.66,5.27-1.16.88-1.86,2.09-4.19,2.02l-6.73-.19c5.39-12.23,7.95-25.29,6.88-39.14-.42-5.42.2-10.74-1.53-15.93-.83-2.49-2.71-4.86-2.71-7.23,0-1.78-.4-2.7-1.39-4.53l-3.53-6.59c-1.22-2.28,2.83-7.14,5.32-6.2,5.15,1.94,9.06,6.17,12.41,10.09,1.58,1.86,2.52,3.66,4.97,3.93Z"/>
    <path class="st2" d="M686.87,361.89c-.43.57-1.04.69-1.58.71-.58.03-1.21-.14-.9-.9.51-.22,1.95.15,2.48.19Z"/>
    <path class="st0" d="M651.23,389.34l14.43.77c-.1.34-.02.85.2,1.04.27.24.9.36,1.52.43l7.09.7,25.37,3.52,26.51,4.2,28.92,4.58,5.03,1.53,21.7,3.97,20.85,4.89,18.27,4.97,17.43,5.04,14.94,4.27,12.81,4.69c4.22,1.54,7.74,3.96,12.44,5.09l3.81,2.07,6.82,2.95,7.95,4.44,10.01,5.77,6.14,3.82,20.6,15.75,5.13,5.08c7.01,6.93,13.16,14.23,18.35,22.39,0,2.37,1.88,4.74,2.71,7.23,1.73,5.2,1.11,10.51,1.53,15.93,1.07,13.84-1.49,26.91-6.88,39.14l-5.75,13.06c-.81,1.84-1.47,3.67-3.36,4.28-2.33.22-4.97-.4-7.07-2-8.84-6.75-18.5-2.04-20.57-4.94-1.94-2.71-4-3.2-6.92-4.23-1.56-1.16-2.81-5.6-2.52-7.59,2.53-4.9,1.77-9.63-2.47-13.15-2.87-2.39-4.85-5.96-8.48-7.42-.49.95-.19,1.59-.2,2.02-.43-.17-1.1-.41-1.35-.76-.44-.59-.15-1.41-.23-1.77,2.19-4.76-3.25-13.18-4.33-18.21l-2.34-10.9c-1.64-7.66-6.42-12.97-12.55-17.39l-5.75-4.15-10.25-5.57c-1.59-.86-3.28-2.32-5.02-3.13l-8.36-3.92c-3.83-1.79-7.29-3.27-11.04-4.75l-12.01-4.74-11.21-3.8c-2.5-.85-4.54-2.31-7.26-2.63-3.04-.37-5.23-2.11-7.97-2.88l-13.69-3.86-18.8-5.25c-4.8-1.34-9.84-2.31-14.87-3.11l-6.97-2.24-21.77-4.3-7.24-1.73-22.15-3.12c-2.59-.36-4.65-1.26-7.53-1.54l-36.37-3.47c-1.85-.33-3.63-1.38-6.04-1.52l-47.3-2.85c-3.15-.19-5.73-1.41-8.36-1.52l-38.19-1.57-38.36-.42c-36.43-.4-72.21.01-108.46,1.89-2.22.75-4.35,1.41-7.04,1.55l-56.45,3.05c-2.09.11-3.65.53-5.18,1.61l-36.37,3.45c-2.11.2-3.38.86-5.25,1.21l-25.32,4.67-20.63,4.43c-2.13.46-3.8,1.89-6.17,2.33-4.21.79-8.35,2.01-12.39,3.22l-16.5,4.94-11.83,4.17c-2.99,1.05-5.3,2.97-8.37,3.34.16-.9-.6-1.06-1.07-.9l-2.69.89-5.71-13.76c-2.04-4.91-.22-12.45,4.81-14.27l12.25-4.44c4.52-2.66,9.82-2.8,14.62-4.57,2.35-.87,4.3-1.63,6.92-2.21l9.14-2.04c1.85-.41,3.26-1.21,5.35-1.62l20.38-3.95c2.25-.44,3.94-1.54,6.39-1.91l21.04-3.25c2.64-.41,4.95-1.47,7.78-1.86l23.62-3.25,6.13-1.15,38.28-4.08c5.36-.57,10.24-1.34,15.71-1.7l31.58-2.04,6.69-1.4,68.87-3.02c3.09-.14,4.96-1.38,7.57-1.54l22.82-1.41c2.86-.18,4.42-1.19,5.93-3.55,1.95-.53,5.38-1.08,7.73-1.09l28.35-.09,38.17,1.19,7.57,1.48,52.74,2.49Z"/>
    <path class="st4" d="M896,541.1c-.83-.73-.47-1.72-.65-2.58-.69-3.34-2.08-7.07-4.22-10.21-1.74-.15-3.5,2.28-3.79,3.49-.44,1.88-6.18,7.84-8.8,9.25-1.6.86-2.32,2.81-3.62,3.95-.16.04-.43.03-.58.12-1.7,1.1-3.33,2.35-4.43,4.07-.17.01-.42-.02-.57.07-.38.21-.71.54-1,.87-2.05.35-3.54,2.4-5.38,3.49l-8.92,5.3c-2.91,1.73-6.7,2.21-8.9,5.16-3.87.48-6.8,2.22-9.18,4.92-4.04.21-7.47,1.49-10.55,3.26l-3.43,1.97-11.56,3.48-14.16,4.81-10.24,3.09c-1.6.48-3.85,1.52-5.36,1.52-1.37-.65-1.81.3-3.21.62l-17.68,3.99-10.99,3.37c-.11-.07-.3-.19-.44-.17-3.58.51-7.73.06-11.36,1.51-7.9,3.14-16.33,3.04-24.63,4.77-3.96.82-7.18,2.72-11.85,2.24l-9.3,1.15-.57.36c-2.29,0-4.94-.3-6.89.57-.17.08-.46.06-.59.24-2.7-.6-4.84.46-7.49,1.53l-6.21.62-.46.21c-3.78-.21-7.35.52-11.53,1-2.36.27-4.97-.66-6.9.53-.96-.18-2.1-.09-3.1,0l-15.83,1.33c-2.44.2-4.46,2.05-7.52,1.51-2.08-.37-4.51-.13-6.22.4-.22.07-.45.16-.4.54l-8.34-.23c-1.13.01-1.99.22-2.51.7l-3.24-.04-12.16.51-21.89,1.28-17.46.16c-.94,0-1.13,1.13-.86,1.64-.23-.13-.67-.07-.52.5l-64.01-.87-6.13-1.57-65.53-2.83c-2.93-.13-5.06-1.34-7.58-1.63-13.32-1.53-26.49-1.4-39.55-4.23-2.27-.49-4.26-1.26-6.76-1.55l-28.17-3.27-5.88-1.79c-6.82-.94-13.52-2.19-20.1-3.68l-20.93-4.72c-5.09-1.15-10.03-3.08-15.19-2.11-.53-1.13-1.34-2.77-1.92-2.78l-3.14-.05c-1.45-1.5-4.98-1-6.42-1.75-1.79-.93-4.26-1.2-5.78-1.8-1.79-.7-2.56-2.6-5.89-2.4-2.31.14-6.12-1.12-8.39-2.2l-4.67-2.21c-1.77-.84-3.67-1.25-5.48-.88-3.65-2.12-7.79-3.06-11.7-4.96l-7.74-3.76c-7.33-2.25-26.23-11.46-31.2-15.64-2.42-2.03-5.7-2.61-8.12-5.16-1.4-1.48-3.75-3.16-5.43-4.34-8.72-6.16-21.64-19.06-23.25-27.5l-2.26-11.84c-4.97,5.02-9.99,10.37-11.01,17.47l-2.34,16.26c-2.83-4.07-1.46-8.33-1.18-12.46,1.21-18.02,10.69-23.52,21.89-33.68,2.09-1.9,3.86-3.12,6.12-4.81l6.62-4.98c4.02-3.02,8.73-5.3,13.14-8.65.15,0,.31-.02.44-.09l1.29-.6c2.92-2.49,6.48-3.79,10.37-5.29,2.08-.8,3.66-2.98,5.65-3.22,3.07-.37,5.39-2.29,8.37-3.34l11.83-4.17,16.5-4.94c4.04-1.21,8.18-2.44,12.39-3.22,2.36-.44,4.04-1.87,6.17-2.33l20.63-4.43,25.32-4.67c1.87-.35,3.14-1.01,5.25-1.21l36.37-3.45c1.54-1.08,3.09-1.49,5.18-1.61l56.45-3.05c2.68-.14,4.82-.8,7.04-1.55,36.25-1.88,72.03-2.29,108.46-1.89l38.36.42,38.19,1.57c2.62.11,5.21,1.33,8.36,1.52l47.3,2.85c2.41.15,4.19,1.2,6.04,1.52l36.37,3.47c2.89.28,4.94,1.17,7.53,1.54l22.15,3.12,7.24,1.73,21.77,4.3,6.97,2.24c5.03.8,10.07,1.77,14.87,3.11l18.8,5.25,13.69,3.86c2.74.77,4.93,2.52,7.97,2.88,2.72.33,4.76,1.79,7.26,2.63l11.21,3.8,12.01,4.74c3.75,1.48,7.21,2.96,11.04,4.75l8.36,3.92c1.75.82,3.44,2.27,5.02,3.13l10.25,5.57,5.75,4.15c6.13,4.42,10.91,9.73,12.55,17.39l2.34,10.9c1.08,5.02,6.52,13.45,4.33,18.21ZM619.86,606.48l19.55-1.74,24.67-1.82,6.11-1.54,30.71-3.28,6.76-1.66,27.06-3.91,3.39-1.53c5.3-.8,10.01-2.12,15.19-3.32l20.79-4.82,18.32-4.94,14.72-4.44c2.49-.75,4.78-2.79,7.59-3.01,3.27-.25,5.47-2.53,8.07-3.44,4.44-1.56,8.31-3.16,12.35-5.11l10.72-5.18,10.17-5.52,7.37-4.46,6.67-4.98,6.55-5.21,4.37-4.63c4.88-5.16,6.56-11.28,4.17-17.98-2.26-6.32-6.7-11.02-12.21-14.72l-6.48-4.35-9.5-5.49-10.19-4.87c-2.17-1.04-4.35-3.12-7.17-3.4-3.13-.31-5.44-2.46-8.01-3.52l-11.77-4.86-11.95-4.03-15.47-5.19-12.81-3.87-19.67-5.19-21.76-4.8c-6.29-2.15-13.17-1.91-19.54-3.74l-5.77-1.66-30.16-4.25c-2.36-.33-4.26-1.4-6.98-1.61l-34.91-2.68-6.08-1.5-61.76-4c-1.89-.76-3.87-1.3-6.14-1.33l-55.73-.82-95.33.98c-.76.27-1.82,1.35-2.77,1.4l-33.16,1.59-27.45,1.58-6.1,1.46-40.46,3.44-6.13,1.47-23.47,3.17c-2.49.34-4.21,1.45-6.51,1.88l-14.56,2.74c-2.76.52-4.54,1.64-7.05,2.22l-16.29,3.78-3.34,1.59c-5.34,1.22-10.8,1.72-15.51,4.57l-9.35,3c-3.62,2.06-7.12,3.25-11,4.86-2.01.83-3.72,2.66-6.16,2.97-2.89.37-12.12,6.08-17.18,9.31l-7.11,4.54c-2.49,1.58-4.35,3.2-6.62,5.14l-5.41,4.63c-2.45,2.1-5.57,4.63-5.79,8.43-.92,15.93,16.2,30.36,29.45,39.04,8.49,5.57,17,10.98,26.65,15.04,2.27.96,4.16,3.24,7,3.68,2.13.33,3.63,2.02,5.52,2.67l13.04,4.46,14.31,4.77c5.01,2.64,10.25,3.81,15.54,5.24l18.95,5.13,20.1,4.72c5.41,2.13,10.94,2.54,16.71,3.41l3.35,1.69,22.56,2.88c2.47.32,4.33,1.51,6.57,1.81l32.4,4.33,38.22,4.16,6.06,1.28c59.8,4.95,131.53,4.56,191.71.45l7.35-1.12Z"/>
    <path class="st3" d="M786.03,585.6l5.26.09c4.48-.09,1.06,5.69,4.01,6.48,2.53.67,5.62-3.63,8.56-.18,1.3,1.53.87,3.33-.28,5.32-1.65,2.86-5.07,3.31-7.36,5-5.47,4-8.68,1.32-15.11,8.3-1.6,1.73-1.72,5.46-4.27,6.54l-9.28,3.93c-6.08,2.57-13.04-1.94-20.43.4l-5.47-1.02c-3.19,1.61-5.11,1.05-7.94-.51,0,2.55.01,4.12-.87,5.1-.96,1.07-2.66.27-3.64.05-1.61-.36-.99-2.63-1.21-3.49-1.56-2.27-4.82-.73-6.49.74-6.63,5.83-12.28,1.84-12.72,1.98l-8.07,2.58c-1.19.38-2.7-1.55-3.63-1.92l-23.59.37c-3.29.05-5.33,1.82-9.26-.18l-6.7-3.41c-3.58-1.82-5.15-.14-7.57,1.6-9.34,2.58-19.07-1.07-27.31,4.48-4.15-2.1-7.62-4.3-10.33-7.78l-8.54-.04c-.32,2.46-2.99,3.45-3.22,5.32l-.79,6.54-4.62,6.64c-16.34,3.4-15-3.39-20.91-6.39-2.31-1.17-2.13-7.05.16-9.17l-5.85-2.33c-8.77-3.49-10.62,4.26-14.32,1.22-2.66-2.18-4.96-.54-7.38-.72-5.15-.39-9.63-1.04-15-.72l-8.72.52c-3.83.23-6.48-.64-10.32-.02-1.84.3-5.44-.59-7.01-2.49l44.7-.47c-.15-.56.28-.63.52-.5l26.51-.21c.84,0,2.29-1.91,2.92-1.52l2.32,1.44c1.5.93,2.53-1.12,3.43-1.15l12.86-.43c1.8-.06,3.57-.43,4.33-1.72l3.24.04c3.57.04,7.43.93,10.85-.47-.05-.38.18-.47.4-.54,6.08,1.22,12.22-.27,18.74-.36,4.07-.06,7.55-.24,10.83-2.88,1-.08,2.14-.18,3.1,0,4.48.84,8.59.09,13.61-.57,1.54-.2,4.04.79,4.82-.96l.46-.21c5.07,1.01,13.67-.79,13.73-.9.18-.3.07-1.06-.03-1.25.13-.18.41-.16.59-.24,2.21.3,4.92.68,6.89-.57l.57-.36c5.57.97,12.2-.55,18.7-1.27l9.06-1.01c4.23-.47,7.97-1.75,12.33-2.66l10.07-2.1c2.97.17,5.22-.8,6.97-2.64.14-.02.33.1.44.17l18.96-3.1c2.59-.42,4.64-2.71,8.04-2.6,1.84.06,4.1-.62,4.88-2.28,1.51,0,3.76-1.04,5.36-1.52Z"/>
    <path class="st3" d="M245.92,398.86c-.41,5.25-5.65,2.25-8.48,7.47l-3.47,6.4c-.54,1,.44,2.86-.13,3.63-2.3,3.12-5.77,1.92-5.29,4.74l-9.14,2.04c-2.62.58-4.57,1.34-6.92,2.21-4.8,1.77-10.09,1.91-14.62,4.57l-12.25,4.44c-5.02,1.82-6.85,9.35-4.81,14.27l5.71,13.76,2.69-.89c.47-.16,1.23,0,1.07.9-1.99.24-3.57,2.42-5.65,3.22-3.89,1.5-7.45,2.8-10.37,5.29l-1.29.6c-.13.07-.29.08-.44.09-1.79.08-3.5.7-5.42.16.9-3.51-.88-6.43-3.87-6.78l-4.93,4.42c-4.85.05-9.3-1.32-13.79-2.79-3.92-1.28-5.99-3.82-7.57-7.6l-3.8-3.5c-2.35-4.78-5.75-3.67-5.06-6.08.27-.93,1.35-.92,2.48-1.27,1.72-.53.99-2.86.45-4.05-1.06-2.33-6.22-2.48-5.19-6.84,2.38-.36,4.6-2.47,7-3.31,4-1.4,7.4-2.77,10.93-4.92l11.55-4.24c3.42-2.27,7.57-2.17,11.23-3.89s7.04-3.28,11.13-3.68c3.3-.32,5.56-2.35,8.44-3.14l15.06-4.13,18.85-5.22c6.5-1.8,13.75-2.72,19.97-4.11l2.29.23c.71.07,1.33-.99,1.23-1.91.7-.3,1.78-.02,2.4-.07Z"/>
    <path class="st3" d="M945.8,580.92c-.98,3.69-4.84,5.2-4.97,8.35l-7.43,6.6c-1.55,1.38-2.64,3.48-4.81,3.47l-7.67-.05c-5.46-.03-10.85-.16-15.8-2.57-1.12.74-3.58,2.15-4.84.85l-10.7-11.07c-1.71-1.77-.69-4.43-1.17-6.38-1.49-6.06.06-12.16,5.23-15.62,4.28-2.86,8.76-2.4,13.22,1.13l-.97-9.64c-.52-5.15-6.32-6.91-8.32-12.37,0-.43-.3-1.07.2-2.02,3.63,1.46,5.6,5.03,8.48,7.42,4.23,3.52,4.99,8.25,2.47,13.15-.29,1.99.96,6.43,2.52,7.59,2.92,1.03,4.98,1.52,6.92,4.23,2.07,2.9,11.73-1.81,20.57,4.94,2.1,1.6,4.74,2.23,7.07,2Z"/>
    <path class="st3" d="M106.2,550.93c-4.44-.06-9.95.48-13.98,3.46-2.91,2.15-7.26,4.16-10.52,1.26-1.33-1.18.59-4.22.62-5.51.1-5.64-3.51-9.65-3.26-13.18,4.07-2.29,9.16-2.48,13.94-.78l.19,4.84c3.28-.16,5.61,1.42,8.45,2.31s5.98,1.05,7.26,4.57c.23.64.2,1.73-.29,2.36s-1.42.68-2.39.66Z"/>
    <path class="st3" d="M821.99,574.22l3.43-1.97c1.32,2.85-.11,5.77-.57,8.72-.75,4.82-2.31,7.83-7.43,8.85-1.89.38-5.14,1.34-6.26-1.36-.8-1.93-.99-4.06-2.91-5.62,2.54-.34,2.97-2.15,3.23-3.55l10.52-5.08Z"/>
    <path class="st0" d="M895.34,538.51c-1.73-3.93-3.85-4.51-8.01-6.72.29-1.21,2.04-3.64,3.79-3.49,2.14,3.14,3.53,6.87,4.22,10.21Z"/>
    <path class="st0" d="M874.92,545c1.3-1.14,2.02-3.09,3.62-3.95.41,2.21-1.6,3.52-3.62,3.95Z"/>
    <path class="st0" d="M869.92,549.18c1.1-1.72,2.73-2.97,4.43-4.07-.82,1.96-2.17,3.91-4.43,4.07Z"/>
    <path class="st0" d="M868.35,550.12c.29-.34.62-.66,1-.87-.17.35-.57.8-1,.87Z"/>
    <path class="st2" d="M940.84,589.27c.12-3.15,3.99-4.65,4.97-8.35,1.89-.61,2.55-2.44,3.36-4.28l5.75-13.06,6.73.19c2.33.06,3.03-1.15,4.19-2.02.17,1.55-1.15,2.41-2.29,3.56l-4.6,4.64c-5.77,6.95-11.53,13.48-18.12,19.32Z"/>
    <path class="st2" d="M636.5,367.04c-.24,2.29,3.07,1.13,4.27,5.48,2.3,1.45,5.84,2.69,7.92,4.81-1.4,4.78-.69,8.79,2.55,12.01l-52.74-2.49-7.57-1.48-38.17-1.19-28.35.09c-2.36,0-5.79.56-7.73,1.09-1.51,2.37-3.07,3.38-5.93,3.55l-22.82,1.41c-2.61.16-4.47,1.4-7.57,1.54l-68.87,3.02-6.69,1.4-31.58,2.04c-5.48.35-10.35,1.12-15.71,1.7l-38.28,4.08-6.13,1.15-23.62,3.25c-2.83.39-5.14,1.45-7.78,1.86l-21.04,3.25c-2.45.38-4.13,1.48-6.39,1.91l-20.38,3.95c-2.09.4-3.49,1.21-5.35,1.62-.47-2.82,3-1.62,5.29-4.74.57-.77-.41-2.63.13-3.63l3.47-6.4c2.83-5.22,8.07-2.21,8.48-7.47,2-.79,4.4-1.94,6.94-1.86,2.09.07,3.38-1.45,5.03-1.73l19.53-3.26,9.35-2.12,27.31-4.08,16.42-2.71,19.12-1.88c1.81-.18,3.13-1.31,5.3-1.49l31.52-2.61c2.58-.21,3.95-1.29,6.1-1.63l16.59-2.58c.89-.14,2.15-.94,2.33-1.66s-1.1-1.94-2.05-3.23c6.93-2.04,14.09-.21,21.06-1.7,2.6-.55,4.65-1.34,7.56-1.43l25.87-.77,115.33-1.64,40.11,2.02c3.55.18,9.06,3.31,17.16,2.55Z"/>
    <path class="st3" d="M664.89,369.17c1.34,7.38-1.72,10.29-1.06,11.64.44.91,1.88,1.21,2.61,1.73,4.18,2.98,9.64.39,10.05-2.34.68-4.47-3.71-3.57-4.35-8.17l7.03-.32,13.87.85c.56.99,1.8.87,2.71.79.79-.07,1.7-.05,2.5.11,3.28.68,7.42.02,10.73,1.59,2.34,1.12,3.89,1.36,6.74,1.97l11,2.35c3.02.65,5.02,1.63,7.73,2.34l15.33,4.03,14.88,4.44c3.43,1.02,6.49,3.21,10.29,3.59,2.95.29,5.12,2.11,7.56,3.06l10.16,3.95,12,4.06,11.57,4.28c2.53.94,4.5,2.89,7.36,3.35,2.39.39,4.11,2.01,6.23,2.85l11.38,4.5,11.51,5.04,10.61,4.44,6.73,3.28,10.7,5.69c1.21.64,1.9,1.53,1.78,2.82l-3.81-2.07c-4.7-1.12-8.22-3.54-12.44-5.09l-12.81-4.69-14.94-4.27-17.43-5.04-18.27-4.97-20.85-4.89-21.7-3.97-5.03-1.53-28.92-4.58-26.51-4.2-25.37-3.52c.05-.59-.34-2.1-1.3-2.11l-7.51-.06-14.43-.77c-3.24-3.22-3.95-7.23-2.55-12.01-2.07-2.12-5.62-3.36-7.92-4.81-1.2-4.35-4.51-3.19-4.27-5.48,3.54-.33,6.7.04,10.59.42l17.79,1.71Z"/>
    <path class="st2" d="M679.18,371.7l-7.03.32c.64,4.61,5.03,3.71,4.35,8.17-.42,2.74-5.87,5.32-10.05,2.34-.73-.52-2.17-.81-2.61-1.73-.66-1.35,2.4-4.26,1.06-11.64l11.78,1,1.86.04c.45,0,.84.73.65,1.5Z"/>
    <path class="st2" d="M243.52,398.93c.11.92-.51,1.98-1.23,1.91l-2.29-.23c.19-1.63,2.11-1.9,3.52-1.68Z"/>
    <path class="st2" d="M695.76,373.34c-.91.08-2.15.2-2.71-.79.53-.36,1.36-1.2,2.19-.82.54.25.66,1.08.52,1.61Z"/>
    <path class="st2" d="M674.47,392.27l-7.09-.7c-.62-.06-1.25-.18-1.52-.43-.22-.19-.3-.69-.2-1.04l7.51.06c.96,0,1.35,1.52,1.3,2.11Z"/>
    <path class="st5" d="M619.86,606.48l-7.35,1.12c-60.18,4.11-131.91,4.5-191.71-.45l-6.06-1.28-38.22-4.16-32.4-4.33c-2.24-.3-4.1-1.5-6.57-1.81l-22.56-2.88-3.35-1.69c-5.77-.88-11.3-1.29-16.71-3.41l-20.1-4.72-18.95-5.13c-5.3-1.44-10.53-2.6-15.54-5.24l-14.31-4.77-13.04-4.46c-1.89-.65-3.39-2.34-5.52-2.67-2.84-.44-4.73-2.73-7-3.68-9.64-4.06-18.16-9.47-26.65-15.04-13.24-8.69-30.37-23.11-29.45-39.04.22-3.8,3.34-6.33,5.79-8.43l5.41-4.63c2.26-1.94,4.13-3.55,6.62-5.14l7.11-4.54c5.06-3.23,14.29-8.94,17.18-9.31,2.44-.31,4.15-2.13,6.16-2.97,3.88-1.61,7.38-2.8,11-4.86l9.35-3c4.71-2.85,10.17-3.35,15.51-4.57l3.34-1.59,16.29-3.78c2.5-.58,4.28-1.7,7.05-2.22l14.56-2.74c2.31-.43,4.02-1.55,6.51-1.88l23.47-3.17,6.13-1.47,40.46-3.44,6.1-1.46,27.45-1.58,33.16-1.59c.95-.05,2.01-1.12,2.77-1.4l95.33-.98,55.73.82c2.27.03,4.25.57,6.14,1.33l61.76,4,6.08,1.5,34.91,2.68c2.72.21,4.62,1.27,6.98,1.61l30.16,4.25,5.77,1.66c6.37,1.83,13.25,1.59,19.54,3.74l21.76,4.8,19.67,5.19,12.81,3.87,15.47,5.19,11.95,4.03,11.77,4.86c2.57,1.06,4.88,3.21,8.01,3.52,2.82.28,5,2.36,7.17,3.4l10.19,4.87,9.5,5.49,6.48,4.35c5.51,3.7,9.95,8.4,12.21,14.72,2.39,6.7.71,12.82-4.17,17.98l-4.37,4.63-6.55,5.21-6.67,4.98-7.37,4.46-10.17,5.52-10.72,5.18c-4.04,1.95-7.91,3.55-12.35,5.11-2.6.92-4.8,3.19-8.07,3.44-2.81.21-5.11,2.25-7.59,3.01l-14.72,4.44-18.32,4.94-20.79,4.82c-5.19,1.2-9.89,2.53-15.19,3.32l-3.39,1.53-27.06,3.91-6.76,1.66-30.71,3.28-6.11,1.54-24.67,1.82-19.55,1.74Z"/>
    <path class="st2" d="M748.35,594.93c-1.75,1.84-4,2.81-6.97,2.64l-10.07,2.1c-4.37.91-8.11,2.19-12.33,2.66l-9.06,1.01c-6.51.72-13.14,2.24-18.7,1.27l9.3-1.15c4.68.49,7.89-1.42,11.85-2.24,8.3-1.72,16.72-1.62,24.63-4.77,3.63-1.44,7.78-1,11.36-1.51Z"/>
    <path class="st2" d="M603.41,613.86c-.76,1.29-2.53,1.66-4.33,1.72l-12.86.43c-.9.03-1.93,2.08-3.43,1.15l-2.32-1.44c-.64-.39-2.08,1.51-2.92,1.52l-26.51.21c-.27-.51-.08-1.64.86-1.64l17.46-.16,21.89-1.28,12.16-.51Z"/>
    <path class="st2" d="M780.67,587.12c-.77,1.66-3.04,2.34-4.88,2.28-3.4-.11-5.45,2.18-8.04,2.6l-18.96,3.1,10.99-3.37,17.68-3.99c1.4-.32,1.84-1.27,3.21-.62Z"/>
    <path class="st2" d="M647.47,609.66c-3.29,2.65-6.76,2.83-10.83,2.88-6.52.09-12.66,1.58-18.74.36,1.71-.53,4.14-.77,6.22-.4,3.06.54,5.08-1.3,7.52-1.51l15.83-1.33Z"/>
    <path class="st2" d="M683.16,605.77c.11.19.21.95.03,1.25-.06.11-8.66,1.9-13.73.9l6.21-.62c2.64-1.08,4.78-2.14,7.49-1.53Z"/>
    <path class="st2" d="M617.49,613.43c-3.42,1.4-7.28.51-10.85.47.52-.48,1.38-.68,2.51-.7l8.34.23Z"/>
    <path class="st2" d="M669,608.13c-.78,1.75-3.28.76-4.82.96-5.01.66-9.13,1.41-13.61.57,1.93-1.18,4.54-.25,6.9-.53,4.18-.48,7.75-1.21,11.53-1Z"/>
    <path class="st2" d="M690.64,604.96c-1.97,1.25-4.69.87-6.89.57,1.96-.88,4.6-.56,6.89-.57Z"/>
    <path class="st2" d="M172.97,471.5l1.29-.6-1.29.6Z"/>
  </g>
</svg>