<?xml version="1.0" encoding="UTF-8"?>
<svg id="Layer_1" xmlns="http://www.w3.org/2000/svg" version="1.1" viewBox="0 0 1024 1024">
  <!-- Generator: Adobe Illustrator 30.3.0, SVG Export Plug-In . SVG Version: 2.1.3 Build 182)  -->
  <defs>
    <style>
      .st0 {
        fill: #060607;
      }

      .st1 {
        fill: #0a0d0f;
      }

      .st2 {
        fill: #2b2c2e;
      }

      .st3 {
        fill: #abbcc8;
      }

      .st4 {
        fill: #fbf5ef;
      }

      .st5 {
        fill: #faf7f6;
      }

      .st6 {
        fill: #acbecc;
      }

      .st7 {
        fill: #99aebf;
      }

      .st8 {
        fill: #e3e9f0;
      }

      .st9 {
        fill: #f8f7f8;
      }

      .st10 {
        fill: #fefefe;
      }

      .st11 {
        fill: #c1ceda;
      }

      .st12 {
        fill: #07080a;
      }

      .st13 {
        fill: #fcfafa;
      }

      .st14 {
        fill: #b7c8d6;
      }

      .st15 {
        fill: #d0d9e1;
      }
    </style>
  </defs>
  <path class="st10" d="M0,0h1024v1024H0V0ZM473.79,770.1c1.36,1.28,1.97,3.86,5.01,3.99,5.63,6.08,14.56,8.13,22.11,4.49,8.64.79,16.61.12,24.65-1.73,1.76-2.66,4.56-2.42,6.31-4.2l7.12-.18c-.37,1.92,1.82,2.26,2.06.31,1.63.54,3.05,1.2,4.1,3.1,3.47,6.3,9.48,9.74,15.08,13.84s10.71,8.13,17.9,8.8c25.6,2.39,44.46-.93,60.64-20.61l6.53-7.94c13.14,3.56,27.13,1.4,39.32-5.56,25.88-14.76,54.69-41.3,67.67-67.85,5.57-11.38,6.59-22.4,4.95-34.87-1.37-10.41-5.47-21.34-13.01-27.66-1.14-.96-2.51-2.99-3.05-4.21-1.36-3.07-4.34-4.97-8.28-5.6-8.83-1.41-7.47-14.93-19.28-14.83-6.04.05-11.92-.84-18.08-1.79-4.95-.77-9.99-.08-14.68-1.27l-6.67-1.7c-2.36-.6-5.01-2.4-7.87-2.88-6.97-1.18-12.15-4.28-17.42-8.63s-11.1-8.47-13.87-15.35c-.88-2.18-.19-5.9-2.17-7.68l-9.6-8.62c-2.75-10.37-2.22-20.88-.9-31.52l3.97-32.04c.83-22.14-2.57-43.82-9.6-64.79-8.86-26.44-20.58-50.85-35.79-74.04-9.4-14.33-21.62-24.92-35.56-34.55-5.43-3.75-9.95-8.25-15.54-11.38.82-3.87-1.41-8.33-5.89-8.45-1.77-.05-3.35.47-4.4-1.35l1.92-.19c.5-.08.93-1.25.53-1.49l-2.31-1.38c-2.15-1.29-3.17-3.86-5.44-4.28-.51-.09-1.21-.64-.87-1.4-5.26-6.2-13.56-10.06-21.89-11.53-.41,1-.38,1.51-.52,2.21-8.36-3.72-15.93-8.75-23.89-13.3-4.79-2.74-8.9-7.2-14.12-8.87-1.96-2.17-4.41-3.95-7.26-4.88-1.24-2.1-4.42-4.79-6.79-5.05-3.74-3.94-8.56-6.52-13.11-9.3l-20.49-13.05c-3.42-2.18-5.87-4.81-8.99-7.15-7.32-5.48-14.05-11.09-21.37-16.65l-26.72-20.27-17.45-12.67-19.3-16.57c-6.82-5.86-13.86-10.82-22.81-13.05-9.52-2.37-20.48-1.63-27.67,5.54-15.71,15.67-6.8,48.4,4.34,68.58l9.99,18.11c-13.42-2.02-26.81,1.93-32.21,14.31-4.82,11.02-4.98,23.36-3.17,35.18,2.97,19.44,8.6,37.32,16.8,55.05,5.14,11.13,10.1,21.8,17.3,31.71,2.05,2.82,4.67,5.04,4.21,9.6-8.49-1.04-16.25,3.82-19.02,11.59s-2.72,16.37-.92,24.92c5.31,25.24,17.97,48.2,35.95,66.49l11.98,12.18c-11.4,7.21-12.5,24.49-8.44,36.8,9.25,28.05,33.94,49.73,60.79,63.72-5.95,6.47-6.74,14.37-5.37,22.57,1.3,7.78,3.4,14.3,9.01,20,5.44,5.53,10.8,10.58,18.9,14-18.18,22.9,5.06,49.8,29.35,60.6,10.2,4.54,20.9,6.1,31.98,7.82,9.41,1.46,1.58,10.33,9.83,22.58,6.17,9.17,13.75,16.97,21.48,24.27Z"/>
  <path class="st3" d="M741.2,629.83c-2.54-.46-4.58-2.01-7.05-1.99-.92,0-2.14-.01-3.03.19.07-1.39-.69-1.69-1.99-2.38l-11-5.84c-3.81-3.1-7.5-5.51-12.23-5.82l-3.82-.25c-1.34-.09-3.66-1.25-4.98-.71-.71-1.14-2.07-1.05-3.15-1.05-2.31,0-4.72-.32-6.91-1.13-2.57-.96-5.54-1.58-6.16-4.51,4.69,1.2,9.73.51,14.68,1.27,6.17.95,12.05,1.84,18.08,1.79,11.8-.1,10.44,13.42,19.28,14.83,3.94.63,6.92,2.54,8.28,5.6Z"/>
  <path class="st11" d="M531.88,772.65c-1.75,1.78-4.55,1.54-6.31,4.2-8.04,1.85-16.01,2.52-24.65,1.73-7.56,3.64-16.49,1.59-22.11-4.49-3.04-.14-3.65-2.71-5.01-3.99,5.49,2.87,11.88,2.45,18.19,3.2,5.65.67,10.45.46,16.21.24l23.69-.89Z"/>
  <path class="st8" d="M513.41,294.61l-1.44.3-5.98-3.61c-4.57-.43-8.12-.89-11.22-3.2l-3.77-2.81c.14-.69.11-1.2.52-2.21,8.32,1.48,16.63,5.33,21.89,11.53Z"/>
  <path class="st8" d="M519.58,303.35c-1.54.07-5.6.3-6.48-1.22-.84-2.25,1.05-4.58,1.19-6.12,2.27.42,3.29,2.99,5.44,4.28l2.31,1.38c.4.24-.02,1.41-.53,1.49l-1.92.19Z"/>
  <g>
    <path class="st0" d="M425.83,243.88c-.35,1.02-.04,2.68.8,2.99,5.03,1.85,8.87,5.94,12.31,6.31,2.37.26,5.55,2.94,6.79,5.05,1.66,2.81,4.26,3.92,7.26,4.88,5.22,1.67,9.33,6.14,14.12,8.87.6,2.36-2.23,2.52-3.36,3.37-1.31.99-1.55,3.23-2.48,3.56-2.24.79-5.7-1.47-11.23-3.02-5.18-1.45-9.37-5.54-14.24-8.71-13.04-8.51-26.28-15.85-38.44-25.5-6.2-4.92-12.83-8.42-19.44-12.51-5.43-3.37-9.84-7.46-14.89-11.21l-33.25-24.67c-7.85-5.82-15.03-11.24-22.64-17.44l-12.13-9.89c-3.85-3.14-8.24-6.9-12.77-8.21-5.85-1.69-9.34,1.29-11.64,5.04-2.42,3.95-3.26,7.54-3.03,12.25.5,10.25,5.21,25.41,10.08,35.06,7.8,15.45,17.72,29.41,29.82,42.41,10.54,11.32,21.06,21.87,34.95,29.08,1.77.92,4.15.08,5.63.41l5.82,1.29,1.07.85c3.57,2.92,7.31,5.65,10.92,8.25l10.31,7.44,5.84,5.33,10.63,8.29c3.53,2.75,6.42,6.52,10.68,9.3,2.57,1.68,5.12,4.12,6.57,6.32l.07,4.27c-1.09.46-1.83,2.33-4.22,2.09-7.02-.72-41.51-27.05-53.92-36.05-3.91-2.83-8.54-2.9-10.87.59-1.54,2.31-3.81,3.34-4.35,6.17-.26,1.36-1.38,3.07-1.33,5.33.25,9.79,2.76,19.04,6.65,27.55,1.75,3.83,3.88,7.45,5.9,11.05l3.94,7c4.67,8.3,10.9,16.02,18.14,23.03l26.43,25.58,14.57,11.46c8.15,6.41,16.38,12.41,25.36,17.66,1.89,1.11,4.27,1.18,4.96,3.64-.87.42-1.52,2.16-3.15,1.85-9.68,1.77-16.46-3.14-25.02-4.33l-1.1,4.98v3c.03,2.6,1.02,4.87,1.57,7.19,6.08,25.82,29.77,46.86,53.75,56.74,5.75,3.64,12.45,4.68,18.67,6.55l12.25,5.74c-3.3,5.18-11.47,3.32-12.69,5.85-3.02,6.24,15.47,24.72,25.22,31.13l12.05,6.44c.22,1.6.6,2.73,2.23,3.83-2.97,5.29.57,9.76,2.85,13.95,1.09,2,1.99,6.35,3.76,7.68.8.6,1.69,2.36,2.09,3.25,1.16,2.55,4.24,5.88,6.39,8.51l2.74,3.35c5.86,10.03,14.26,18.05,24.17,24.12,1.14.7,1.81,2.66,2.08,4l-2.1.59c-8.77-.66-18.29-4.01-23.86-11l-5.77-7.24-8.45-9.49-6.61-10.03c-4.09-6.2-5.96-13.9-7.75-21.42-.79-3.3-2.65-3.46-4.56-4.82l-15.11-10.78c-5.73-4.09-9.12-10.19-13.74-14.98-2.85-2.95-4.45-6.94-6.29-10.65-1.06-2.15-.15-5.93-.48-8.26.34-.02,1.09-1.69.45-1.86-8.04-2.17-15.44-4.55-22.66-8.47-16.6-9.01-30.57-20.67-40.92-36.03l-2.46-4.6c-7.69-14.41-15.4-34.11-1.07-43.15l-20.89-14.95c-.19-.38-.32-.85-.55-1.21-.72-1.13-1.81-1.92-3.21-2.31-.61-1.32-2.39-3.31-3.89-3.41-.85-2.94-3.2-4.52-5.36-6.46-1.62-1.45-3.67-4.91-5.95-5.24-.52-1.74-1.7-2.93-3.13-4.24-12.62-11.52-23.15-24.35-31.77-39.2-6.04-10.4-9.07-21.67-10.81-33.11-.91-5.97.11-12.23,2.02-17.91l5.55-9.9c-10.75-9.21-20.97-17.7-31.6-25.44-5.21-3.8-9.85-8.4-15.87-10.97s-12.61-5.62-19.27-4.01c-2.86.69-3.95,3.08-5.17,5.21-.94,1.64-1.58,3.07-2.22,4.96-1.33,3.91-1.71,7.94-1.54,12.12.88,21.58,10.77,51.68,21.34,71.7,7.28,13.79,16.53,25.82,25.05,38.81,1.18,1.8,2.99,2.48,4.71,2.62.02.7.17,1.38.46,2,.39.82,1.29,1.22,2.63,1.15-.68,9.73,5.95,18.19,9.56,26.84,3.31,7.93,8.1,14.87,14.14,20.91l14.52,14.51c8.82,6.86,17.99,12.6,27.38,17.71l7.73,5.23c2.01,1.36,3.65,2.98,3.56,5.07-7.96,1.38-15.49-.27-23.04-4.53-13.1,8.34-7.45,27.49-1.45,41.2,5.27,12.05,12.35,23.7,23.36,31.84l16.11,11.91c14.92,8.01,30.84,13.53,47.86,15.58,3.76.45,7.9-2,11.06.38-.61,6.14-13.25,9.18-20.09,7.85l-17.87-3.48c-1.01,4.69,2.35,7.72,4.5,10.86,8.31,12.16,21,20.23,35.2,25.3,9.19,3.28,17.88,5.93,27.25,6.92l11.98,1.26,17.99,1.6c.05,2.56-1.46,4.47-2.05,6.93-8.77,2.96-18.2,3.29-27.99,1.97-27.34-3.7-55.47-11.35-70.5-35.41-4.36-6.98-6.31-14.24-5.28-22.29-11.29-5.14-21.93-9.61-30.73-16.99l-10.25-8.6c-9.87-9.59-17.51-21.02-24.73-33.24-8.09-2.5-15.21-5.79-22.6-8.68-1.62-2.69-4.98-3.95-7.89-2.52-8.35,3.47-4.89,21.05-.02,29.66l4.63,8.18c11.91,21.03,46.02,43.13,69.27,51.92.29,1.72-1.03,2.74-2.92,3.76l-11.13,5.96-3.53.24c-2.09.14-5.22,3.05-5.08,5.69.21,3.95,2.53,7.24,3.4,10.2,1.68,5.69,5.09,9.68,10.04,13.52,6.91,5.36,10.69,10.33,20.88,7.77,3.11-.78,8.71.95,10.99,3.08,14.71,13.79,33.34,20.84,53.77,23.39,14.34,1.79,28.26,2.7,42.04-.97.88-.02,2.9.13,2.94,1.69.02.95-1.06,2.39-1.32,3.4-3.38,1.15-5.84,5.74-10.8,6.73-7.98,1.58-16.05,1.9-24.13,1.47l-2.03-.11-22.06-3.13-22.71-7.04-8.03-3.28-6-3.6c-10.09-6.05-19.8-5.45-22.4,1.33s.04,13.6,4.8,19.46c4.96,6.11,12.54,9.16,19.53,12.07,4.57,1.9,9.04,4.15,13.88,4.71l12.99,1.5,10.02.1,4.03-.05c11.77-.14,23.57.98,35.11-1.77l6.06-.5c-2.8-10.46-2.29-12.71,3.96-18.52,1.84-1.71,5.25-2.28,7.36-2-3.14,10.63,1.12,19.38,8.34,26.82,4.09,4.22,8.1,8.42,13.84,11.4,9.74,5.05,19.85,6.51,31.08,7.7-2.29,3.49-5.26,4.04-7.72,4.53-5.17,1.04-10.84-.3-15.96-1-12.75-1.76-23.67-7.6-31.73-18.1-1.43-1.86-4.85-.2-6.32.33-4.86,1.75-10.9,3.47-16.05,3.78l-20.03,1.22c-3.95,10.64,1.43,20.71,10.11,26.34,2.26,1.47,5.54,2.91,7.52,4.98s3.65,2.22,5.24,3.19c1.27.77,2.42,2.39,5.13,2.88,17.67,3.23,35.55,1.36,52.3-3.78,2.98-.92,6.13.11,8.88,2.14-1.84,5.6-.17,9.93,2.58,13.46,5.02,6.44,11.06,10.77,19.9,11.69,8.21.85,16.54.92,24.9-.26,16.46-2.32,28.68-14.68,32.48-30.63.67-2.82,3.52-5.12,3.11-7.82,3.97-1.26,3.29,3.27,6.7,4.07,2.59,2.4,4.01,7.78,8.5,8.82,19.35,4.46,43.93-17.93,58.25-31.52l4.59-4.36,12.18-13.94c2.88-3.3,5.47-6.72,7.45-10.75l2.51-5.11c1.22-2.49,1.6-4.47,2.22-7.12,2.61-11.14,2.94-23.05-5.55-30.22.74-4.81-4.55-8.34-9.02-7.61-12.02-10.15-34.34-1.34-47.79-8.47l-22.92-12.17c-8.32-4.41-16.03-8.98-23.35-15.58-11.36-10.25-20-23.34-23.13-38.46-2.55-12.33-3.09-24.19-1.57-36.67l4.73-38.94c1.54-12.73,1.14-25.27-2.4-37.42l-6.78-23.29c-6.34-15.78-13.21-30.87-20.97-45.92-3.01-5.84-6.35-10.72-9.93-16.18-6.5-9.91-12.59-20.54-22.41-27.58-4.28-3.07-8.11-5.36-12.51-8.65l-7.29-5.46c-8.29-6.22-20.58-8.36-27.57-14.35.03-1.31,1.04-3.36.54-4.83-1.92-5.56-7.36-8.22-12.49-9.45l-3.15-.76c-.77-4.09-3.38-6.59-4.01-14.24-.13-1.54,3.39-2.17,3.79-1.01,2.15,6.26,6.76,8.75,12.23,11.35l7.57,3.59c1.91.91,3.25,4.59,6.46,3.19,2.27,1.99,5.42,3.15,8.29,4.76l9.61,5.37c5.59,3.12,10.11,7.63,15.54,11.38,13.94,9.62,26.16,20.21,35.56,34.55,15.21,23.18,26.93,47.59,35.79,74.04,7.02,20.97,10.43,42.65,9.6,64.79l-3.97,32.04c-1.32,10.65-1.85,21.15.9,31.52l9.6,8.62c1.98,1.78,1.3,5.5,2.17,7.68,2.77,6.88,8.52,10.94,13.87,15.35s10.45,7.45,17.42,8.63c2.85.48,5.5,2.28,7.87,2.88-.85,2.6-1.57,5-.77,8.12,4.74.48,9.67.2,13.6-1.91,2.18.81,4.59,1.14,6.91,1.13-.2.63-.08,1.71.56,2,1.29.58,1.92-.68,2.59-.95,1.32-.55,3.65.62,4.98.71,1.82,8.26,10.28,15.15,17.15,11.48-.03-.44.35-.53.66-.49,1.82,2.31,4.42,4.84,7.38,4.17l3.85-.86c.89-.2,2.1-.18,3.03-.19-.03,1.28.82,2.36,2,2.81l-.02,1.77c0,.38.51.77,1.05.47.3-.17.79-.82,1.04-1.12,1.78.52,3.51,2.4,6.03,2.27,7.54,6.33,11.64,17.25,13.01,27.66,1.64,12.47.62,23.48-4.95,34.87-12.99,26.55-41.79,53.08-67.67,67.85-12.19,6.96-26.19,9.12-39.32,5.56l-6.53,7.94c-16.18,19.68-35.04,22.99-60.64,20.61-7.19-.67-12.37-4.76-17.9-8.8s-11.61-7.54-15.08-13.84c-1.05-1.9-2.47-2.56-4.1-3.1-.9-.3-1.06-.34-2.06-.31l-7.12.18-23.69.89c-5.76.22-10.56.43-16.21-.24-6.31-.75-12.7-.33-18.19-3.2-7.73-7.3-15.3-15.11-21.48-24.27-8.25-12.25-.42-21.12-9.83-22.58-11.09-1.72-21.79-3.29-31.98-7.82-24.29-10.81-47.52-37.71-29.35-60.6-8.1-3.42-13.46-8.47-18.9-14-5.61-5.7-7.7-12.22-9.01-20-1.38-8.2-.58-16.1,5.37-22.57-26.85-13.99-51.54-35.66-60.79-63.72-4.06-12.32-2.96-29.6,8.44-36.8l-11.98-12.18c-17.98-18.28-30.64-41.25-35.95-66.49-1.8-8.55-1.89-17.04.92-24.92s10.53-12.63,19.02-11.59c.47-4.56-2.16-6.77-4.21-9.6-7.2-9.9-12.15-20.58-17.3-31.71-8.19-17.73-13.83-35.61-16.8-55.05-1.81-11.82-1.64-24.16,3.17-35.18,5.41-12.37,18.79-16.32,32.21-14.31l-9.99-18.11c-11.14-20.18-20.05-52.91-4.34-68.58,7.19-7.17,18.15-7.91,27.67-5.54,8.95,2.23,15.98,7.19,22.81,13.05l19.3,16.57,17.45,12.67,26.72,20.27c7.32,5.55,14.05,11.16,21.37,16.65,3.12,2.34,5.57,4.98,8.99,7.15l20.49,13.05ZM278.72,433.55c5.9,17.3,16.37,31.69,28.66,45,5.59,6.05,11.54,10.93,17.72,16.37,5.26,4.63,10.43,8.85,17.18,12.25-.89-6.29-2.25-11.75-1.25-17.68,2.42-14.44,9.3-17.49,9.35-18,.09-1.08-1.22-1.79-2.1-2.45-23.39-17.65-40.78-35.79-49.94-64.28-4.54-3.48-9.11-6.38-15.01-6.93-2.65-1.88-7.44-1.97-9.47.94-7.2,10.35,1.84,25.89,4.87,34.78Z"/>
    <path class="st1" d="M491,285.28l3.77,2.81c1.73,4.86,9.89,9.07,15.97,12.08-.19.77.61,2.33,1.22,2.87-3.21,1.4-4.55-2.28-6.46-3.19l-7.57-3.59c-5.47-2.6-10.08-5.09-12.23-11.35-.4-1.17-3.92-.54-3.79,1.01.63,7.65,3.24,10.15,4.01,14.24l-5.87-3.21c-6.15-3.37-11.74-7.99-17.8-12.18l-12.21-8.86c5.53,1.55,8.98,3.81,11.23,3.02.93-.33,1.17-2.57,2.48-3.56,1.13-.85,3.96-1.01,3.36-3.37,7.96,4.55,15.53,9.58,23.89,13.3Z"/>
    <path class="st1" d="M680.88,606.33c.63,2.93,3.59,3.56,6.16,4.51-3.93,2.11-8.86,2.39-13.6,1.91-.8-3.12-.08-5.52.77-8.12l6.67,1.7Z"/>
    <path class="st15" d="M514.28,296.01c-.14,1.54-2.03,3.87-1.19,6.12.89,1.52,4.94,1.29,6.48,1.22,1.06,1.82,2.63,1.31,4.4,1.35,4.47.13,6.71,4.58,5.89,8.45l-9.61-5.37c-2.88-1.61-6.03-2.77-8.29-4.76-.61-.54-1.41-2.1-1.22-2.87l1.23-5.26,1.44-.3c-.34.76.37,1.31.87,1.4Z"/>
    <path class="st2" d="M741.2,629.83c.54,1.22,1.91,3.25,3.05,4.21-2.52.13-4.26-1.75-6.03-2.27-.55-.59-1.29-.99-2.07-1.12-1.18-.45-2.02-1.53-2-2.81,2.48-.02,4.51,1.54,7.05,1.99Z"/>
    <path class="st1" d="M438.94,253.18c-3.44-.37-7.28-4.46-12.31-6.31-.83-.31-1.14-1.96-.8-2.99,4.55,2.78,9.37,5.36,13.11,9.3Z"/>
    <path class="st1" d="M452.99,263.11c-3-.96-5.6-2.07-7.26-4.88,2.85.93,5.3,2.72,7.26,4.88Z"/>
    <path class="st11" d="M541.06,772.78c-.24,1.95-2.43,1.6-2.06-.31,1-.03,1.16.01,2.06.31Z"/>
    <path class="st5" d="M450.03,275.9l12.21,8.86c6.07,4.18,11.65,8.81,17.8,12.18,3.5,7.96,9.77,14.15,17.89,17.12l3.07,1.13c6.99,5.98,19.28,8.13,27.57,14.35l7.29,5.46c4.39,3.29,8.22,5.58,12.51,8.65,9.82,7.04,15.91,17.67,22.41,27.58,3.58,5.46,6.91,10.34,9.93,16.18,7.77,15.05,14.64,30.14,20.97,45.92l6.78,23.29c3.54,12.15,3.95,24.69,2.4,37.42l-4.73,38.94c-1.51,12.48-.98,24.34,1.57,36.67,3.13,15.12,11.76,28.22,23.13,38.46,7.33,6.61,15.04,11.17,23.35,15.58-.59,2.08-2.17,2.9-5.01,3.13l4.73,8.2c1.62,2.82,1.87,6.29,4.37,8.75l5.57.36c1.78,8.16-1.95,10.63-1.88,11.33.13,1.24,1.1,2.47,2.91,2.77,2.33.38,3.64,4.5,5.38,5.26,5.14,2.25,7.49,4.54,10.26,9.39,2.25,3.92,11.32-1.64,16.69-.74-2.55,2.76-6.47,3.68-10.07,5.17l-9.89,4.08c-3.58-1.34-8.57,1.69-14.6,1.04l-17.27-1.86c-3.26-.35-4.5.42-7.42-1.38-8.23-5.06-16.44-2.99-28.43-10.64-3.14-2.01-8.59-3.17-11.26-6.06-1.01-2.23.1-8.11-3.88-9.06l-10.93,1.37c-.57.07-1.89-.98-2.05-1.37-.25-.61,1.52-1.39,1.87-2.19l2.7-6.17c2.73-2.04,6.32-.94,9.03-1.92,2.33.93,2.86,3.55,4.57,4.01,3.21.86,4.75-6.15,9.77-3.08,2.16,1.32,5.55,3.04,8.1,1.34,1.68-1.12,1.17-4.5.42-6.47,3.61.35,6.34,1.09,8.55-1.98l-11.03-13.35c-1.4-1.7-3.25-3.29-4.38-5.5-.91-1.76-6.01-.12-6.97-4.87l-.47,6.12s-.61,0-1.24.1l-1.11-5.12c-2.5-.26-7.68-1.22-8.14-4.54.64-2.19,3.95-5.21,3.06-8.08-.06-.43-.6-.71-.94-.65-.44.08-1.27.14-1.68-.14-.76-.52-.45-1.52-.91-2.75l-1.99-5.31c4.44.42,5.96,4.31,5.33,7.58l.79.84c1.01-.39,2.37-.78,3.05-1.3,1.56-1.21-.91-12.22-3.36-13.28-2.68-1.16-5.05,3.82-6.31,5.51-2.35.72-3.62-3.41-2.52-4.94-3.05-.17-3.8,1.35-5.48,1.82-1.83.52-3.29-.48-3.94-1.64-.47-.84,1.9-2.01,2.26-2.92,1.7-4.37,4.34-6.8,9.51-6.44.25,1.57.2,3.49,1.37,5.19.48.7,2.58-.98,2.77-1.85.26-1.24-.17-2.97-1.28-4.26l-4.7-5.44c-.98-1.13-2.92-.87-3.98-.25-1.27.74-1.86,2.2-2.78,4.05-.47.64-2.31-.1-2.85-.68-.86-.92-.95-3.14.15-4.26l5.48-5.58,7.44,2.94c-2.17-3.67-3.65-6.58-3.37-10.98-2.72-1.52-3.62-3.98-2.36-7.04.03-.9.19-2.57-.01-3.22-.26-.81-2.79-1.15-3.68-.42-3.04,2.5-5.65,5.69-10.12,5.81-.91-1.8-.82-4.25-1.1-5.81-4.07-1.98-6.76,3.03-9.16,4.12-6.99.22-12.8-13.9-11.39-15.28,3.26-3.18,4.29-10.4,1.05-14.45-1.62-2.02-2.75-3.05-3.87-5.8-.62-1.53-4.55-2.44-4.98-4.54,7.05-4.91,7.29-18.35,3.89-23.76-1.65-2.63,2.29-5.55,3.03-7.23-1.43-2.69-3.87-5.03-3.64-8.25.43-6.01-6.97-13.57-10.08-11l-7.8-5.66c1.04-1.58,1.09-3.05-.13-4.23l-14.76-14.24c-2.96-2.86-5.72-5.38-8.27-8.16l-8.4-9.15c-4.39-4.78-7.28-9.67-9.77-15.5-1.59-3.73-4.09-6.81-4.72-11.19-.15-1.06-2.34-1.38-3.05-1.04-1.69-6.89-3.05-13.86-2.6-21.08.09-1.46-3.57-13.29-6.21-17.03-1.38-1.96-2.17-4.13-2.44-7.02-1.61.97-3.06,1.6-4.95,1.48l-5.77-7.28-2.47-10.03c-1.18.17-2.18.75-3.27,1.33-2.26-.46-4.97-.31-5.93,2.23-2.83-1.62-5.91,1.68-8.13,2.17-4.57-.87-5.45-7.01-4.9-10.97,1.38-9.99-5.24-17.95-14.22-19.37-.6-2.34-1.92-4.19-3.12-5.05-1.65-1.18-4.36,1.26-5.72,1.14-2.34-.23-3.27-4.88-3.59-6.91l-10.57-1.38c-3.97-2.59-7.18-3.41-11.67-4.88-1.83-.6-4.08-3-6.76-2.88l-5.53-8.73c-1.34-2.11-7.41-.36-8.82-4.11-.71-1.89-.52-4.43-2.73-4.66-2.77-.28-4.79-.12-6.02,2.74-.82,1.89-3.96,3.08-5.86,1.86l-12.92-8.24c-2.01-1.28-3.09-3.6-5.88-2.91-9.32-9.05-24.7-27-29.86-38.35-1.57-3.45-2.57-7.42-5.15-9.83l-4.35-9.57c-.84-4.16-.89-8.27-2.76-12.29l-5.63-12.09c-1.62-3.49-1.97-7.74-4-11.33-1.2-2.11-5.45-2.58-6.44-5.09,2.3-3.75,5.79-6.73,11.64-5.04,4.54,1.31,8.93,5.07,12.77,8.21l12.13,9.89c7.61,6.21,14.79,11.62,22.64,17.44l33.25,24.67c5.05,3.75,9.46,7.84,14.89,11.21,6.61,4.1,13.24,7.59,19.44,12.51,12.16,9.65,25.4,16.99,38.44,25.5,4.86,3.18,9.06,7.26,14.24,8.71Z"/>
    <path class="st9" d="M461.96,388.03l3.13,17.99c1.55,8.9,6.81,16.5,12.55,23.36l21.48,25.65c.63,3.57,3.31,6.44,5.48,9.44-5.38,10.39-3.76,22.3,1.55,32.45.9,5.69,4.96,9.76,8.53,14.5,2.25,2.98,4.32,5.45,8.48,4.26.73.68,2.19,1.67,3.05,2.13-.47,3.41,2.08,6.36,5.79,6.32l4-.05c3.49.8,7.94,3.03,11.72.45,1.46-.99-.66-4.31-1.86-5.28l-8.84-7.13c.48-2.19-.69-3.3-2.25-4.95-7.15-7.53-13.34-15.99-17.15-25.77-1.7-4.36-.77-9.47-.27-14.13l7.55.77c1.28,3.98,12.35,4.42,12.18.75.51-.15,1.44-.57,1.89-.43,3.86,1.18.68-2.88-3.2-8.26,3.12-2.57,10.51,4.98,10.08,11-.23,3.22,2.21,5.56,3.64,8.25-.74,1.68-4.68,4.6-3.03,7.23,3.4,5.41,3.16,18.85-3.89,23.76.43,2.1,4.36,3.01,4.98,4.54,1.11,2.75,2.25,3.78,3.87,5.8,3.24,4.05,2.21,11.27-1.05,14.45-6.73,1.4-12.67-1.13-18.81-3.5-3.46-1.33-7.9,0-11.87-1.78-1.8-.8-2.92,3.17-2.99,4.55-.11,2.36,2.16,3.17,4,4.75,2.39,2.07,3.78,4.54,7.77,4.54l.69,8.35c3.91-.51,6.22.36,7.43,3.62,7.89,3.08,6.36,10.18,11.47,12.02,3.07,1.1,3.55,2.64,5.53,5.09,2.2,2.71,8.21,5.85,8.24,10.4.02,3.5-.98,5.71.81,9.38,3.66,7.49,7.57,2.81,10.3,7.1,1.21,1.9,1.32,3.89.84,6.64,11.38,5.08,11.93,15.05,20.42,20.64,1.69,1.9,2.05,5.57,3.27,7.98-2.35,2.41-2.74,5.62-2.42,8.2-2.71.98-6.3-.11-9.03,1.92l-2.7,6.17c-.35.81-2.12,1.59-1.87,2.19.16.39,1.48,1.44,2.05,1.37l10.93-1.37c3.98.96,2.87,6.83,3.88,9.06,2.67,2.89,8.12,4.06,11.26,6.06,11.99,7.65,20.2,5.59,28.43,10.64,2.92,1.79,4.16,1.02,7.42,1.38l17.27,1.86c6.03.65,11.01-2.39,14.6-1.04-18.31,7.56-38.19,4.27-56.9-1.21l-9.25-2.71c-4.66-1.37-10.25-4.31-16.03-3.22-3.5.66-6.14,1.16-9.56-.91-4.53-2.75-10.37-5.41-15.81-4.62-2.76.4-3.56,4.47-4.81,6.49l-13.06-4.75c-4.87-1.77-7.85-4.33-11.29-8.08l-9.96-10.88c-.73-.79-2.76-.11-3.08.52l-1.66,3.29c-3.86,7.65-.99,15.86,4.57,22.31l11.48,10.27,5.92,7.37c9.82,3.4,20.55,3.19,30.39.02,1.02-1.31.83-4.04.84-5.42l6.12-3.71c1.01,1.93,3.69,1.18,5.61,2.06l8.08,3.7,10.23,5.12c.42,3.96-3.35,13.77-10.23,16.91-10.07,4.58-21.09,6.38-31.85,6.45-8.91.06-17.8-1.37-26.96-3.43-11.13-2.51-16.9-10-22.2-6.91-7.21-7.44-11.47-16.19-8.34-26.82.77.1,2.73-1.17,2.33-2.18-.75-1.73-2.36-3.37-1.89-5.19.26-1.01,1.34-2.45,1.32-3.4-.04-1.56-2.05-1.71-2.94-1.69-1.02-1.8-3.58-2.88-6.39-2.57-19.66,2.13-38.75-.27-56.81-8.33l-29.83-13.32c-4.91-2.19-10.02-5.01-16.23-3.17-2.26-2.6-6.07-3.92-8.59-5.83-4.84-3.68-13.77-13.46-14.77-15.83-1.91-4.56-.07-9.53.11-13.87l11.13-5.96c1.9-1.02,3.22-2.04,2.92-3.76,8.97-5.66,13.83,6.6,22.11,14.74,7.47,7.34,14.87,14.51,24.95,17.1l19.2,4.94c18.54,4.77,49.51,9.87,64.8,4.25,4.55-1.67,9.44-4.01,8.94-9.73-3.93-2.23-8.04-1.88-11.85-2.22l-17.99-1.6-1.01-4.21c9.74-5.64,20.96,1.2,21.14-3.5.09-2.34-1.9-5.19-2.79-7.3l-5.78,1.45-2.99-15.75c-.19-.98-2.38-1.98-2.78-3.08l-4.89-13.34c-1.77-1.97-5.03-2.27-6.23-5.81-.98-2.88-1.5-5.15,1.45-7.31,3.11.17,3.74,3.8,7.77,4.41.38,1.77,2.08,2.96,3.31,4.59,7.7,10.17.13,22.23,12.65,29.44,4.05,2.33,6.74,6.1,10.51,9.54,3.05,2.78,8.52,4.95,10.11,8.32,2.78,7.72,13.26,13.14,22.84,11.75,1.51-.22,3.59.18,3.7-2.02l2.1-.59c1.89-.53,4.11-1.59,6.28-2.9l4.67-2.83-8-2.62c-7.72-2.52-13.87-8.13-20.07-13.88l-7.76-7.19c-5.17-4.79-3.32-12.18-10.5-10.57-.4-.89-1.29-2.65-2.09-3.25-.62-4.11,4.84-4.86,4.97-9.32.02-.83-.69-1.95-1.54-2.47-.29-7.26-6.59-10.63-12.28-13.67l-12.05-6.44c-9.75-6.42-28.24-24.89-25.22-31.13,1.22-2.52,9.39-.66,12.69-5.85l-12.25-5.74-.31-5.71c4.38-1.03,8.66-1.06,13.97-.51,1.8-3.54-.11-7.31-2.83-9.93-3.01-2.89-1.37-7.73-1.96-11.04-.75-4.22-.34-6.36.21-10.49.39-2.96-1.82-7.85-1.72-10.96.27-8.91-5.3-13.02-10.96-18.3-2.21-10.29-11.28-12.16-10.96-15.87.29-3.32-3.62-6.55-4.82-8.85-.28-5.23-3.03-9.3-5.42-13.55-1.55-2.77-2.89-16.4-1.61-20.12.27-.78,1.37-1.3,2.43-1.02ZM565.27,646.55c-.08-2.09-1.02-2.61-1.78-2.7-1.94-.24-4.78,1.78-4.44,2.62-.02-.05,3.57,2.56,4.46,2.59.98.03,1.84-.54,1.77-2.5Z"/>
    <path class="st14" d="M693.16,701.21c-.5,3.48-4.09,3.14-7.19,3.7-2.93.54-1.96,4.66-1.17,6.7,1.45,3.73,7.33,5.58,11.67,6.95l14.06,4.89c-14.32,13.59-38.9,35.98-58.25,31.52-4.49-1.03-5.91-6.42-8.5-8.82-.52-3.02.6-5.59,1.36-9.14-2.88.02-5.19.85-7.44,1.83-1.47.64-.74,2.45-.61,3.24.42,2.7-2.44,5.01-3.11,7.82-3.8,15.95-16.03,28.31-32.48,30.63-8.35,1.18-16.69,1.1-24.9.26-8.84-.91-14.88-5.25-19.9-11.69l4.53-11.25-11.33-7.86c3.05-2.4,7.74-5.52,6.68-9.7l-1.34-5.32,12.13-.56c2.21-.09,3.99-1.5,4.45-3.16,1.32-4.75-5.77-5.51-4.81-10.89,10.76-.07,21.78-1.87,31.85-6.45,6.88-3.13,10.65-12.95,10.23-16.91-.26-2.48,1-4.96,3.21-6.73,4.52-3.63,2.78-8.77,8.07-10.13,18.71,5.48,38.59,8.77,56.9,1.21l9.89-4.08c3.6-1.49,7.53-2.41,10.07-5.17.21.03.55.05.84.02l-2.87,21.89c-.35,2.66-1.52,4.29-4.07,5.46-.54.6,1.01,2.23,2.04,1.74Z"/>
    <path class="st13" d="M441.19,341.89c.05.63.06,1.43.3,2.01-.97-.15-1.72.38-1.58,1.59.1.84.14,1.14,1.07,1.57,3.05,1.42,2.48,5.2,4.98,7.01.34,2.11,1.05,4.82,2.44,6.71-2.51,2.57-3.31,6.07-1.86,9.64,5.06,4.05,8.28,9.36,10.72,15.44l3.93-.83.78,3c-1.05-.27-2.16.25-2.43,1.02-1.28,3.72.06,17.34,1.61,20.12,2.38,4.25,5.13,8.32,5.42,13.55,1.2,2.3,5.1,5.53,4.82,8.85-.32,3.72,8.75,5.58,10.96,15.87,5.67,5.27,11.24,9.39,10.96,18.3-.1,3.11,2.12,7.99,1.72,10.96-.55,4.12-.96,6.27-.21,10.49.59,3.32-1.05,8.15,1.96,11.04,2.72,2.62,4.63,6.39,2.83,9.93-5.31-.56-9.59-.52-13.97.51l.31,5.71c-6.22-1.86-12.92-2.91-18.67-6.55,4.72-2,11.77-2.78,10.59-4.33l-1.54-2.03c.21-3.86-1.82-6.96-5.74-8.18-19.59-6.11-19.53-11.78-21.52-13.13-3.77-2.56-5.55-5.82-8.39-8.9-3.15-3.43-6.26-6.04-8.56-10.53-2.43-4.73-9.04-6.27-13.52-8.2-1.87-.8-2.87-2.25-5.06-1.43-.55-2.33-1.54-4.6-1.56-7.19,2.33.27,4.55-.5,6.3-2.31l5.71,2.17c.53,1.7.66,5.34,2.62,6.68,4.4,3.01,11.01,1.66,15.08-1.87l6.18-8.86c2.05-2.94,7.03-7.65,4.56-11.24l-5.33-7.75c-1.04-1.51-5.25-.67-6.12.63-.61-.57-2.1-1.24-2.88-1.55l1.12-7.45c-4.36.07-7.34-2.62-8.85-6.74-9.99-1.11-7.75-10.71-15.7-13.39s-10.55-12.69-20.67-18.25l-7.61-7.29c-4.12-3.95-9.8-7.28-12.05-12.63-6.6-.97-2.37-5.96-5.72-9.16-.99-.94-3.82-.8-5.4-1.16l-14.16-18.57c1.04-2.85.13-5.46-1.68-7.56-.99-1.15.25-4.9-1.16-6.11-1.24-1.06-3.93-.82-5.74-1.91-.63-.4-.8-2.67-1.37-3.15-.51-.43-1.51-.48-2.48-.31.54-2.83,2.81-3.87,4.35-6.17,5.86,3.59,5.05,12.03,16.09,16.08,7.85,4.2,14.77,8.58,20.83,15.42l30.09,13.26c7.11-4.95,19.39-2.79,23.91,3.73,1.9,2.73,3.87,5.88,7.44,7.23.28,1.07.55,1.53.8,1.93.51.81,2.49.41,2.47-.27-.12-5.18-5.35-6.98-4.4-15.12,1.12-.55,2.13-.44,3-.32Z"/>
    <path class="st13" d="M282.26,255.68c.69,3.87-3.28,3.84-4.01,7.8-.41,2.21,2.34,2.09,3.24,2.79l8.65,6.73c2.36,1.83,5.39,4.35,7.3,6.38l9.36,9.93c2.9,3.07,6.02,7.75,8.44,11.3.58,4.78.7,11.14,2.59,14.92l-.6,4.63c-.13.98,1.38,1.89,2.81,2.05-.01,2.1-.32,4.63.38,6.65-1.47,2.79-2.94,6.48-2.07,9.99.43,1.74,3.74,1.74,4.8,1.09-.11.42.09.78.21,1.08-5.8,1.71-5.73,7.01-4.8,12.25.43,2.43-.69,5,.39,7.4.85,1.86,3.05,4.7,6.02,3.14,1.95-1.02,3.19-5.11,4.58-6.96l3.73,7.79c-1.23.06-1.94.63-2.03,1.18-.98,5.98,4.3,11.39,9.76,16.44,1.6-.78,4.37-1.78,5.57-.88,1.17,1.51.95,4.1.91,6.18,4.96,1.92,6.8,5.85,9.53,9.42,2.4,3.14,4.71,5.73,6.77,9.41l7.52,7.82c5.65-.92,11.36.65,14.25,5.49-1.79,1.43-3,2.19-3.48,3.11s1.67,20.98,4.7,28.5c1.62,4.03,4.13,8.54,1.06,12.62-.75,1-2.58,1.85-2.82,2.99l-3.68-1.05-1.46-1.01-14.36-9.25c2.9-1.01,5.16.22,8.9,1.62-1.68-8.89-6.41-13.36-14.88-14.78-.62-4.82-3.3-7.53-6.46-10.58-1.85-1.79-3.02-4.31-6.3-4.59-1.24-4.45-4.6-6.55-8.68-8.17l-8.92-15.96c-3.52-6.31,3.34-19.18-5.68-21.63l-5.83-1.58c.22-.79-.61-1.27-.75-1.75-.22-.74-.44-1.37-1.01-1.95,6.95-14.47-6.91-17.69-11.34-26.9l-4.69-5.3c1.28-4.02-.34-5.8-2.34-8.43-2.93-3.86-4.16-9.93-8.03-13.05-2.94-2.37-6.54-3.85-6.23-8.76.21-3.35-1.66-5.79-3.81-8.21-2.73-3.06-2.83-7.65-3.19-11.6-.66-7.07-4.45-12.53-7.86-18.41l-4.26-12.78c-1.72-2.11-6.4-.88-8.55-.98.64-1.89,1.28-3.32,2.22-4.96,2.93-.3,4.86-2.6,5.17-5.21,6.66-1.61,13.21,1.43,19.27,4.01Z"/>
    <path class="st13" d="M486.41,558.43l4.65,3.47,5.05,4.86c-2.95,2.16-2.43,4.44-1.45,7.31,1.21,3.53,4.47,3.84,6.23,5.81l4.89,13.34c.4,1.1,2.6,2.1,2.78,3.08l2.99,15.75,5.78-1.45c.89,2.11,2.88,4.95,2.79,7.3-.19,4.7-11.41-2.13-21.14,3.5l1.01,4.21-11.98-1.26c.97-4.3-3.68-5.44-6.77-6.65-2.64-7.09-7-14.1-13.83-18.23-1.22-1.13-3.09-4.41-3.99-5.87-1.82-2.92,2.23-5.74,3.19-8.07,3.88-9.41,2.64-15.33-3.06-22.04-1.7-2-5.82-2.13-8.39-2.77-3.07,2.3-6.12,4.1-9.74,1.42-1.63,3.74,2.33,1.84,4.7,6.97l-9.01-2.26-1.36-8.91c-.46-2.84-6.55-1.97-8.47.68-2.29-2.59-5.6-4.53-6.53-7.18-2.04-5.82-5.11-8.98-10.36-12l-6.35-3.65-9.52-7.27c-5.88-4.49-12.17-12.67-21.42-14.7-.55-1.25-.95-3.18-1.86-3.95-4.66-3.93-10.27-17.34-5.18-18.48,5.64-1.26,15.35.21,22.55-1.5,6.22-1.48,11.84,2.04,15.72,6.71,2.25,2.7,5.34,4.22,7.53,6.49s4.01,4.4,6.91,6.36c4.14,2.82,7.39,10.13,14.93,14.25,9.95,5.44,14.04,12.46,23.89,17.83,4.99,7.69,6.52,13.12,16.02,16.76,1.51.58,2.78,3.52,4.92,2.93,1.4-.38,2.76-1.05,3.88-2.82ZM446.69,559c1.63-2.21-2.64-4.88-4.66-3.8-.88,1.9,3.52,5.33,4.66,3.8Z"/>
    <path class="st9" d="M333.26,364.63c.82,1.72,2.78,3,4.06,5.24,3.31,5.77,9.15,9.45,13.67,13.94l8.12,8.08c2.82,2.8,5.03,4.32,8.76,4.56,2.28.33,4.33,3.79,5.95,5.24-.65-.26-1.59.06-1.71.8-.05.3,2.71,5.37,7.07,5.65,1.5.1,3.28,2.09,3.89,3.41.27.58-.56,1.78.59,2.34.78.38,1.92.16,2.62-.03.23.36.37.83.55,1.21l4.46,9.09c-1.39,12.8.79,25.22,3.93,37.42,1.08,4.2,4.85,4.08,6.87,6.28,3.56,3.89,5.27,9.65,7.61,14.1,10.38,19.75,28.65,35.02,49.74,43.56l3.61,2.62c1.22,5.66,3.68,12.97,7.66,14.13,3.16,6.24,11.25,9.51,15.7,16.16-1.12,1.76-2.48,2.44-3.88,2.82-2.14.58-3.41-2.36-4.92-2.93-9.5-3.64-11.03-9.07-16.02-16.76-9.85-5.37-13.94-12.39-23.89-17.83-7.54-4.12-10.78-11.43-14.93-14.25-2.89-1.97-4.61-3.98-6.91-6.36s-5.29-3.79-7.53-6.49c-3.88-4.67-9.5-8.19-15.72-6.71-7.2,1.71-16.92.24-22.55,1.5-5.09,1.14.52,14.54,5.18,18.48.91.77,1.31,2.7,1.86,3.95,9.25,2.02,15.54,10.21,21.42,14.7l9.52,7.27,6.35,3.65c5.25,3.02,8.32,6.18,10.36,12,.93,2.65,4.24,4.59,6.53,7.18,1.92-2.65,8.02-3.53,8.47-.68l1.36,8.91c-29.01-9.29-55.42-25.84-76.84-48-1.24-1.28-1.98-1.84-3.64-1.68-5.99-13.7-11.65-32.86,1.45-41.2,7.55,4.26,15.08,5.91,23.04,4.53l3.59-1.26c1.85.29,2.61.1,3.55-.74.66-.59,2.86-1,2.6-2.42-.44-2.46-3.52-3.07-4.77-4.18-1.83-1.63-3.95-2.77-5.1-4.99.24-1.15,2.07-2,2.82-2.99,3.06-4.07.56-8.58-1.06-12.62-3.03-7.53-5.16-27.61-4.7-28.5s1.68-1.67,3.48-3.11c-2.9-4.84-8.6-6.41-14.25-5.49l-7.52-7.82c-2.05-3.68-4.37-6.27-6.77-9.41-2.73-3.57-4.57-7.5-9.53-9.42.04-2.08.26-4.67-.91-6.18-1.2-.91-3.97.1-5.57.88-5.46-5.04-10.75-10.45-9.76-16.44.09-.56.8-1.12,2.03-1.18Z"/>
    <path class="st4" d="M724.9,644.33l9.02,7.61c8.49,7.17,8.16,19.08,5.55,30.22-4.22-1.7-9.48.13-11.75,3.66l-2.58.12c-1.55.1-3.09-.14-4.1-1.45-.9-1.15-.34-3.07-.44-4.5-.2-2.97-4.33-2.86-5.49-4.2s-1.76-4.8-4.32-5.6c-3.85-1.2-7.91.36-11.37,1.14-.54.12-1.04.51-1.36.8-.28.04-.63.02-.84-.02-5.37-.9-14.45,4.66-16.69.74-2.78-4.84-5.12-7.14-10.26-9.39-1.74-.76-3.06-4.88-5.38-5.26-1.81-.3-2.79-1.52-2.91-2.77-.07-.69,3.66-3.17,1.88-11.33l-5.57-.36c-2.5-2.45-2.75-5.93-4.37-8.75l-4.73-8.2c2.84-.23,4.42-1.05,5.01-3.13l22.92,12.17c13.45,7.14,35.77-1.68,47.79,8.47Z"/>
    <path class="st9" d="M445.23,333.52c.07,1.05-.07,2.2-.36,3.32-.37-.08-.68-.11-1.03.1-.66-.01-1.76-.01-2.28.29-.98.56-.91,2.2-.5,3.02l.14,1.64c-.87-.12-1.89-.23-3,.32-.95,8.14,4.28,9.94,4.4,15.12.02.68-1.96,1.08-2.47.27-.25-.4-.53-.86-.8-1.93-3.56-1.35-5.54-4.5-7.44-7.23-4.53-6.51-16.8-8.67-23.91-3.73l-30.09-13.26c-6.06-6.84-12.97-11.22-20.83-15.42-11.04-4.05-10.23-12.49-16.09-16.08,2.33-3.49,6.96-3.42,10.87-.59,12.41,9,46.91,35.33,53.92,36.05,2.38.25,3.13-1.63,4.22-2.09l10.73-3.77c.67-.66.16-2.86-.69-3.1l-2.99-.86-9.98-7.53-8.06-7.28c-1.42-1.28-2.35-4.09-5.07-3.83.56-2.22-1.69-2.62-2.96-3.76l-9.07-8.1c-4.38-3.91-10.44-5.16-16-2.72-3.61-2.6-7.35-5.33-10.92-8.25.83.05,1.39-.74,1.08-1.61-.14-.39-1-.76-1.44-.53-.34.18-.6.74-.72,1.29l-5.82-1.29c-1.69-4.9-12.49-1.68-11.04-12.68l-8.21-7.97c2.8-.69,3.87,1.63,5.88,2.91l12.92,8.24c1.9,1.21,5.05.03,5.86-1.86,1.23-2.86,3.25-3.02,6.02-2.74,2.2.22,2.02,2.77,2.73,4.66,1.41,3.75,7.48,2,8.82,4.11l5.53,8.73c2.68-.12,4.93,2.28,6.76,2.88,4.49,1.47,7.7,2.29,11.67,4.88l10.57,1.38c.32,2.03,1.25,6.69,3.59,6.91,1.36.12,4.08-2.32,5.72-1.14,1.2.86,2.52,2.71,3.12,5.05,8.98,1.42,15.6,9.38,14.22,19.37-.55,3.96.33,10.1,4.9,10.97,2.22-.49,5.3-3.79,8.13-2.17Z"/>
    <path class="st6" d="M327.05,543.99l8.3,7.72c2.85,2.65,7.05,4.84,8.39,8.2.81,2.04.82,3.83,2.97,5.06s4.68,2.23,6.38-.11l.97.22,2.65.89c-1.47,2.54-.17,4.58,2.04,6.23,4.31,3.21,8.56,4.81,13.39,2.51,8.14-3.87,5.98-7.93,9.3-13.32,8.8,7.38,19.44,11.85,30.73,16.99-1.04,8.05.92,15.31,5.28,22.29,15.03,24.06,43.16,31.71,70.5,35.41,9.79,1.33,19.22,1,27.99-1.97,1.42,1.83,4.07,2.35,4.96,5.02-15.28,5.62-46.26.52-64.8-4.25l-19.2-4.94c-10.08-2.59-17.48-9.77-24.95-17.1-8.28-8.14-13.13-20.39-22.11-14.74-23.26-8.79-57.36-30.89-69.27-51.92,1.71-2.02,4.17-2.5,6.47-2.21Z"/>
    <path class="st9" d="M438.09,419.81c-9.45-3.71-17.91-9.42-26.84-14.98-12.15-7.55-37.47-32.53-44.53-44.55l-6.21-7.36c-1.45-1.72-3.08-4.59-3.67-6.76-1.12-4.15-3.53-7.13-8.95-7.16h-5.96c-3.89-8.52-6.4-17.77-6.65-27.55-.06-2.26,1.07-3.97,1.33-5.33.97-.17,1.97-.12,2.48.31.56.48.74,2.75,1.37,3.15,1.81,1.1,4.49.85,5.74,1.91,1.42,1.21.17,4.96,1.16,6.11,1.81,2.1,2.72,4.71,1.68,7.56l14.16,18.57c1.58.36,4.42.22,5.4,1.16,3.35,3.2-.89,8.2,5.72,9.16,2.26,5.35,7.93,8.68,12.05,12.63l7.61,7.29c10.12,5.56,13.02,15.67,20.67,18.25s5.71,12.28,15.7,13.39c1.51,4.12,4.49,6.81,8.85,6.74l-1.12,7.45Z"/>
    <path class="st9" d="M488.02,624.34c-9.37-.99-18.06-3.64-27.25-6.92-14.2-5.07-26.89-13.15-35.2-25.3-.04-1.91.72-3.56,1.98-4.22,4.98-2.6,10.18.72,11.39-3.16,6.84,1.33,19.48-1.71,20.09-7.85.54-5.49-7.53-4.83-8.89-7.78-2.37-5.13-6.33-3.23-4.7-6.97,3.61,2.69,6.67.88,9.74-1.42,2.57.64,6.69.77,8.39,2.77,5.71,6.71,6.94,12.63,3.06,22.04-.96,2.33-5.01,5.14-3.19,8.07.91,1.46,2.77,4.73,3.99,5.87,6.83,4.13,11.19,11.14,13.83,18.23,3.09,1.21,7.74,2.35,6.77,6.65Z"/>
    <path class="st9" d="M415.14,679.01l7.78,3.01,24.95,4.36,25.1,2.49,2.05.08,16.18.71.92,14.56c-11.53,2.75-23.33,1.63-35.11,1.77.33-1.79-.68-2.33-2.52-2.09-1.23.16-1.87.61-1.51,2.14l-10.02-.1c.34-1.37-1.01-3.19-2.63-3.1-3.28.17-3.86-2.1-5.72-3.51-3.07-2.32-7.46-3.14-10.84-4.2l-9.35-2.95c-7.17-2.26-12.62-8.5-17.37-14.4,3.32-4.44,10.62-3.54,14.45.71,1.05,1.16,2.91.24,3.65.52Z"/>
    <path class="st9" d="M283.31,397.83c-1.22,4.19.62,7.3,2.99,10.83l17.25,25.65c4.81,7.14,9.53,13.68,14.43,20.71l6.89,9.88c.21,1.21.18,2.93-1.09,3.85l-5.88,4.3c-6.31-3.2-11.48-8.09-16.42-13.58-6.72-7.47-13.48-14.5-18.9-23.05-.97-1.54-2.01-2.53-3.87-2.87-3.03-8.89-12.07-24.43-4.87-34.78,2.02-2.91,6.82-2.82,9.47-.94Z"/>
    <path class="st9" d="M315.9,376.25c-17.22-17.4-32.23-37.18-43.37-59.62-6.68-13.46-10.83-27.09-16.21-41-.49-1.26-1.29-1.75-2.27-1.67-.17-4.18.21-8.2,1.54-12.12,2.15.1,6.83-1.13,8.55.98l4.26,12.78c3.42,5.88,7.21,11.33,7.86,18.41.37,3.95.46,8.54,3.19,11.6,2.15,2.42,4.02,4.85,3.81,8.21-.31,4.91,3.29,6.39,6.23,8.76,3.87,3.12,5.1,9.19,8.03,13.05,1.99,2.63,3.62,4.41,2.34,8.43l4.69,5.3c4.43,9.21,18.29,12.43,11.34,26.9Z"/>
    <path class="st9" d="M365.52,455.61c-8.74-3.83-16.34-9.85-24.33-15.7-.8-.59-1.66-.72-2.33-.74-.12-.53-.38-1.44-1.04-2-6.11-5.15-10.96-10.91-15.58-17.38-1.11-1.55-2.77-2.6-4.44-2.71-3.6-8.65-10.24-17.11-9.56-26.84.32-4.58,6.21-7.9,9.42-10.3l5.83,1.58c9.02,2.45,2.15,15.32,5.68,21.63l8.92,15.96c4.08,1.62,7.44,3.72,8.68,8.17,3.29.28,4.45,2.8,6.3,4.59,3.15,3.05,5.84,5.76,6.46,10.58,8.47,1.41,13.2,5.88,14.88,14.78-3.74-1.4-5.99-2.63-8.9-1.62Z"/>
    <path class="st6" d="M315.9,376.25c.58.58.79,1.2,1.01,1.95-8.2-.34-8.02,5.7-11.75,8.89-1.72-.14-3.53-.82-4.71-2.62-8.52-12.98-17.77-25.01-25.05-38.81-10.57-20.02-20.46-50.12-21.34-71.7.98-.08,1.78.41,2.27,1.67,5.38,13.91,9.53,27.54,16.21,41,11.13,22.44,26.15,42.22,43.37,59.62Z"/>
    <path class="st6" d="M360.51,352.91l6.21,7.36c7.05,12.02,32.38,37,44.53,44.55,8.94,5.56,17.39,11.27,26.84,14.98.78.31,2.27.97,2.88,1.55,1.75,1.7,4.78,4.09,5.63,7.06,1.22,4.24-2.18,8.46-5.37,10-.69-2.46-3.07-2.53-4.96-3.64-8.98-5.26-17.21-11.25-25.36-17.66l-14.57-11.46-26.43-25.58c-7.24-7.01-13.46-14.73-18.14-23.03,2.78-2.23,5.19-4.3,8.74-4.13Z"/>
    <path class="st9" d="M323.85,510.88c-.34,2.16.78,3.55,2.32,4.93l8.97,8.06c8.43,7.58,17.9,23.72,22.67,34.25-2.22,1.57-3.24,4.33-3.75,6.96l-.97-.22-9.35-4.96c-1.34-3.36-5.54-5.55-8.39-8.2l-8.3-7.72c-1.38-4.71-6.38-6.49-11.1-5.97-4.88-8.61-8.34-26.19.02-29.66,2.91-1.43,6.27-.17,7.89,2.52Z"/>
    <path class="st8" d="M501.01,714.89c-.73,4.64,3.88,11.29,7.88,14.08,3.05,2.13,3.13,5.95,1.25,9.06-3.91,6.47,2.88,12.67.41,17.07-1.54,2.74-14.05-.75-22.76-.69-1.59-.97-3.28-1.14-5.24-3.19s-5.26-3.51-7.52-4.98c7.31-6.47-2.01-11.07.32-18.15,1.38-4.21,10.02-4.5,9.61-9.41,5.16-.31,11.19-2.03,16.05-3.78Z"/>
    <path class="st9" d="M467.29,507.83c-23.97-9.88-47.67-30.92-53.75-56.74,2.19-.82,3.2.63,5.06,1.43,4.49,1.93,11.1,3.46,13.52,8.2s5.41,7.1,8.56,10.53c2.83,3.08,4.62,6.34,8.39,8.9,1.99,1.35,1.93,7.03,21.52,13.13,3.92,1.22,5.95,4.33,5.74,8.18l1.54,2.03c1.18,1.55-5.87,2.33-10.59,4.33Z"/>
    <path class="st6" d="M441.12,566.85l9.01,2.26c1.36,2.95,9.44,2.29,8.89,7.78-3.16-2.38-7.3.07-11.06-.38-17.03-2.05-32.95-7.57-47.86-15.58l-16.11-11.91c-11.01-8.14-18.09-19.79-23.36-31.84,1.66-.17,2.41.4,3.64,1.68,21.41,22.16,47.83,38.71,76.84,48Z"/>
    <path class="st3" d="M293.77,213.16c2.58,2.41,3.58,6.38,5.15,9.83,5.17,11.36,20.54,29.3,29.86,38.35l8.21,7.97c-1.44,11,9.36,7.78,11.04,12.68-1.48-.33-3.86.51-5.63-.41-13.89-7.21-24.41-17.76-34.95-29.08-12.1-13-22.02-26.96-29.82-42.41,2.76.41,4.66-.22,6.86-1.71,1.98-1.34,5.04.13,5.85,2.12s2.63,1.91,3.42,2.65Z"/>
    <path class="st14" d="M348.26,469.03c-4.86,1.73-9.81,2.68-14.92,1.73-2.83-2.33-5.36-4.71-8.47-5.86l-6.89-9.88c-4.9-7.03-9.63-13.56-14.43-20.71l-17.25-25.65c-2.38-3.53-4.21-6.64-2.99-10.83,5.91.54,10.48,3.44,15.01,6.93,9.16,28.49,26.55,46.63,49.94,64.28Z"/>
    <path class="st6" d="M317.91,473.05l9.25,7.8c4.32,3.64,8.49,7.45,13.86,8.63-1,5.94.36,11.4,1.25,17.68-6.75-3.4-11.92-7.62-17.18-12.25-6.18-5.44-12.13-10.31-17.72-16.37-12.29-13.31-22.76-27.71-28.66-45,1.86.34,2.9,1.34,3.87,2.87,5.42,8.55,12.18,15.58,18.9,23.05,4.94,5.49,10.11,10.38,16.42,13.58Z"/>
    <path class="st6" d="M727.3,705.15l-12.18,13.94-4.59,4.36-14.06-4.89c-4.34-1.37-10.22-3.22-11.67-6.95-.79-2.04-1.77-6.16,1.17-6.7,3.1-.57,6.69-.22,7.19-3.7,1.82.49,3.33-.08,4.89-.87l14.12-7.12,8.97-4.31c-.64,5.43-2.42,7.28.98,12.96,1.31,2.18,2.53,3.55,5.18,3.27Z"/>
    <path class="st15" d="M514.94,733.09c-.96.03-1.32.91-.92,1.43.53.69,1.33.61,1.87.5-.05.18-.17.48-.16.68.15,5.01,4.93,8.31,10.32,7.49l14.9-2.27c3.03-.46,5.54.55,7.09,2.58,1.36,1.79,1.11,4.23.6,6.32-.91-.09-1.92.03-2.6.65s-1.16,1.65-.81,3.05c-16.75,5.14-34.63,7.01-52.3,3.78-2.72-.5-3.86-2.11-5.13-2.88,8.71-.05,21.22,3.44,22.76.69,2.47-4.4-4.33-10.6-.41-17.07,1.88-3.11,1.8-6.94-1.25-9.06,1.39-1.89,3.2-.46,4.17.48,1.12,1.09,1.48,2.4,1.87,3.64Z"/>
    <path class="st14" d="M371.19,552.8l-8.23,2.2-3.59,2.91c-.29.24-1.17.24-1.56.21-4.77-10.53-14.24-26.67-22.67-34.25l-8.97-8.06c-1.54-1.38-2.66-2.77-2.32-4.93,7.39,2.9,14.51,6.19,22.6,8.68,7.23,12.21,14.86,23.64,24.73,33.24Z"/>
    <path class="st3" d="M415.27,646.54l29.83,13.32c18.06,8.06,37.15,10.46,56.81,8.33,2.81-.31,5.38.77,6.39,2.57-13.78,3.67-27.7,2.76-42.04.97-20.43-2.55-39.05-9.6-53.77-23.39.89-.87,1.69-1.27,2.76-1.79Z"/>
    <path class="st6" d="M474.39,524.14l-11.35,4-3.61-2.62c-21.09-8.53-39.36-23.81-49.74-43.56,1.57-.99,1.48-2.67,1.55-4.19,10.35,15.36,24.32,27.03,40.92,36.03,7.23,3.92,14.62,6.3,22.66,8.47.64.17-.1,1.84-.45,1.86Z"/>
    <path class="st15" d="M411.25,477.78c-.07,1.51.01,3.2-1.55,4.19-2.34-4.45-4.04-10.21-7.61-14.1-2.01-2.2-5.79-2.08-6.87-6.28-3.15-12.2-5.32-24.62-3.93-37.42l-4.46-9.09,20.89,14.95c-14.32,9.05-6.62,28.74,1.07,43.15l2.46,4.6Z"/>
    <path class="st9" d="M298.13,266.64c-.51,2.34,2.9,3.89,3.51,5.65,2.42,6.98,5.44,12.28,10.33,17.76l7.98,8.95c1.36,1.52,1.89,3.21,4.22,2.98-1.91,5.68-2.92,11.94-2.02,17.91-.84-.27-1.77.04-1.99.69-.19.58-.15,1.16-.15,1.62-1.43-.16-2.93-1.07-2.81-2.05l.6-4.63c-1.89-3.78-2.01-10.14-2.59-14.92-2.42-3.56-5.54-8.23-8.44-11.3l-9.36-9.93c-1.91-2.03-4.94-4.54-7.3-6.38l-8.65-6.73c-.9-.7-3.65-.58-3.24-2.79.74-3.96,4.7-3.93,4.01-7.8,6.02,2.56,10.66,7.17,15.87,10.97Z"/>
    <path class="st11" d="M281.03,179.2l5.63,12.09c1.87,4.02,1.92,8.13,2.76,12.29l4.35,9.57c-.79-.74-2.64-.72-3.42-2.65s-3.87-3.46-5.85-2.12c-2.2,1.48-4.1,2.12-6.86,1.71-4.87-9.65-9.58-24.81-10.08-35.06,4.84-.96,7.61,3.81,13.47,4.17Z"/>
    <path class="st3" d="M567,720.37c-.96,5.38,6.13,6.14,4.81,10.89-.46,1.66-2.24,3.07-4.45,3.16l-12.13.56c-.08-.3-.06-.74-.21-1.32,2.47-.5,5.44-1.05,7.72-4.53-11.23-1.19-21.34-2.65-31.08-7.7-5.74-2.98-9.75-7.18-13.84-11.4,5.31-3.09,11.07,4.4,22.2,6.91,9.16,2.06,18.05,3.49,26.96,3.43Z"/>
    <path class="st3" d="M322.16,319.89c1.74,11.44,4.77,22.71,10.81,33.11,8.62,14.85,19.15,27.69,31.77,39.2,1.44,1.31,2.61,2.5,3.13,4.24-3.73-.24-5.94-1.75-8.76-4.56l-8.12-8.08c-4.52-4.49-10.36-8.17-13.67-13.94-1.28-2.24-3.23-3.52-4.06-5.24l-3.73-7.79-6.19-15.83c-.12-.3-.32-.65-.21-1.08-.22-3.81-1.5-7.51-2.73-11.08-.69-2.01-.39-4.55-.38-6.65,0-.45-.04-1.04.15-1.62.22-.65,1.15-.97,1.99-.69Z"/>
    <path class="st6" d="M338.86,439.17c.67.02,1.52.15,2.33.74,7.99,5.84,15.58,11.87,24.33,15.7l14.36,9.25.07,1.37c-1.14,3.08-4.07,2.14-6.09,3.98-9.39-5.11-18.56-10.85-27.38-17.71l-14.52-14.51c3.4-.39,5.02,2.96,6.91,1.19Z"/>
    <path class="st15" d="M348.26,469.03c.87.66,2.19,1.38,2.1,2.45-.04.51-6.92,3.56-9.35,18-5.37-1.18-9.54-4.99-13.86-8.63l-9.25-7.8,5.88-4.3c1.27-.92,1.3-2.64,1.09-3.85,3.1,1.15,5.64,3.54,8.47,5.86,5.12.95,10.06,0,14.92-1.73Z"/>
    <path class="st3" d="M539.07,732.66c-1.93,4.08-5.81,5.36-10.05,6.47-8.66,2.26-7.87-1.24-13.29-3.43,0-.2.11-.5.16-.68.32-1.05-.79-1.39-.95-1.93-.39-1.24-.75-2.55-1.87-3.64-.97-.95-2.78-2.37-4.17-.48-3.99-2.79-8.61-9.43-7.88-14.08,1.47-.53,4.89-2.19,6.32-.33,8.06,10.5,18.98,16.34,31.73,18.1Z"/>
    <path class="st11" d="M324.18,301.98c-2.32.22-2.86-1.46-4.22-2.98l-7.98-8.95c-4.89-5.48-7.91-10.78-10.33-17.76-.61-1.75-4.03-3.31-3.51-5.65,10.63,7.74,20.85,16.24,31.6,25.44l-5.55,9.9Z"/>
    <path class="st15" d="M375.79,607.83c-.18,4.35-2.02,9.32-.11,13.87,1,2.38,9.93,12.15,14.77,15.83,2.52,1.92,6.33,3.23,8.59,5.83,6.21-1.84,11.32.98,16.23,3.17-1.08.52-1.87.92-2.76,1.79-2.28-2.13-7.87-3.86-10.99-3.08-10.19,2.56-13.97-2.41-20.88-7.77-4.96-3.84-8.37-7.83-10.04-13.52,2.08-1.91.55-4.8.81-7.14l.87-8.75,3.53-.24Z"/>
    <path class="st15" d="M484.96,718.67c.41,4.92-8.23,5.21-9.61,9.41-2.33,7.08,6.99,11.68-.32,18.15-8.67-5.64-14.06-15.71-10.11-26.34l20.03-1.22Z"/>
    <path class="st9" d="M423.99,443.77c1.3.49,12.23-.66,12.99-1.08.69-.38.93-1.63,1.11-2.43,1.63.32,2.28-1.43,3.15-1.85,3.19-1.54,6.58-5.76,5.37-10-.85-2.96-3.88-5.36-5.63-7.06.88-1.3,5.09-2.13,6.12-.63l5.33,7.75c2.47,3.59-2.51,8.3-4.56,11.24l-6.18,8.86c-4.07,3.53-10.68,4.88-15.08,1.87-1.96-1.34-2.09-4.98-2.62-6.68Z"/>
    <path class="st3" d="M371.19,552.8l10.25,8.6c-3.32,5.39-1.16,9.45-9.3,13.32-4.83,2.3-9.09.7-13.39-2.51-2.21-1.65-3.51-3.69-2.04-6.23.97.33,2.24.11,3.46.05.09,1.48,2.25,4.11,4.1,4.55,2.8.68,4.7-2,5.32-3.63,1.11-2.92.03-5.56-2.09-7.05-2.4-1.69-5.18-.68-7.67.28l-.46-2.28,3.59-2.91,8.23-2.2Z"/>
    <path class="st11" d="M555.03,733.67c.15.58.13,1.01.21,1.32l1.34,5.32c1.05,4.18-3.63,7.3-6.68,9.7-.31-.21-.89-.16-1.25-.19.51-2.09.77-4.53-.6-6.32-1.55-2.03-4.05-3.04-7.09-2.58l-14.9,2.27c-5.38.82-10.17-2.47-10.32-7.49,5.42,2.19,4.63,5.68,13.29,3.43,4.24-1.1,8.12-2.38,10.05-6.47,5.12.71,10.79,2.05,15.96,1Z"/>
    <path class="st11" d="M522.32,595.05l-4.46,3.38c.86,2.36,2.15,4.36,1.99,6.78-12.52-7.21-4.95-19.28-12.65-29.44-1.23-1.62-2.93-2.82-3.31-4.59,1.83-1.58,4.16-1.05,6.13-2.37,1.92,1.37,3.78,1.52,4.56,4.82,1.79,7.52,3.66,15.21,7.75,21.42Z"/>
    <path class="st6" d="M450.91,680.8c-.01,2.48-3.23,2.6-3.04,5.58l-24.95-4.36c-1.01-4.22-5.23-6.29-2.76-11.55l8.03,3.28,22.71,7.04Z"/>
    <path class="st3" d="M499.13,682.58c.69,1.32,1.71,1.99,3.01,2.63-6.25,5.8-6.76,8.06-3.96,18.52l-6.06.5-.92-14.56-16.18-.71-.03-4.92c8.08.44,16.15.12,24.13-1.47Z"/>
    <path class="st15" d="M420.16,670.48c-2.47,5.25,1.75,7.32,2.76,11.55l-7.78-3.01c.5-2.4-1.32-3.45-2.86-5.33-3.85-4.7-11.02-6.88-15.6-1.96-1.39,1.49-.63,4.72-.52,6.2-1.17.36-2.15-.26-2.37-1.17l-.71-2.89c-.48-1.97.3-4.39-1.32-5.64,2.61-6.78,12.32-7.39,22.4-1.33l6,3.6Z"/>
    <path class="st6" d="M396.15,677.92c.29.1.75.05.89-.14,4.76,5.9,10.21,12.14,17.37,14.4-1.24,3,1.44,4.73,1.67,7.56-6.99-2.91-14.57-5.96-19.53-12.07-4.76-5.86-7.28-13-4.8-19.46,1.61,1.25.83,3.67,1.32,5.64l.71,2.89c.22.92,1.2,1.54,2.37,1.17Z"/>
    <path class="st7" d="M734.75,694.4c-1.97,4.03-4.57,7.45-7.45,10.75-2.65.29-3.87-1.08-5.18-3.27-3.41-5.69-1.63-7.53-.98-12.96l1.63-.93c6.7.62,12.33,1.87,11.98,6.41Z"/>
    <path class="st3" d="M543.16,621.82c-1.01.35-1.69.6-2.68,1.26-1.59-3.37-7.06-5.54-10.11-8.32-3.78-3.44-6.47-7.21-10.51-9.54.15-2.43-1.13-4.43-1.99-6.78l4.46-3.38,6.61,10.03,8.45,9.49,5.77,7.24Z"/>
    <path class="st3" d="M572.07,623.88c.25,1.38-.04,2.97-1.09,3.66-1.16.77-2.66.78-3.94.69-9.91-6.07-18.31-14.09-24.17-24.12l1.37-1.29,7.76,7.19c6.2,5.74,12.35,11.35,20.07,13.88Z"/>
    <path class="st8" d="M393.89,306.95c-5.51.52-8.17-4.78-11.88-1.81l-5.84-5.33-10.31-7.44c5.56-2.44,11.62-1.19,16,2.72l9.07,8.1c1.27,1.13,3.52,1.53,2.96,3.76Z"/>
    <path class="st6" d="M398.96,310.78l8.06,7.28,9.98,7.53c.11.96-.16,2.6-1.32,2.98-2.04.67-4.02.46-5.79.48-1.46-2.2-4.01-4.65-6.57-6.32-4.25-2.78-7.15-6.55-10.68-9.3,1.88-1.82,4.15-2.01,6.32-2.65Z"/>
    <path class="st6" d="M481.16,543.05c-.94,5.49,6.25,7.16,8.39,15.35,1.69.8,1.98,2.42,1.51,3.5l-4.65-3.47c-4.46-6.65-12.54-9.92-15.7-16.16,2.94-1.75-2.44-6.25,4.16-9.87,1.84,3.71,3.45,7.7,6.29,10.65Z"/>
    <path class="st7" d="M510.01,568.81c-1.97,1.32-4.29.79-6.13,2.37-4.03-.61-4.66-4.25-7.77-4.41l-5.05-4.86c.48-1.08.19-2.7-1.51-3.5-2.14-8.2-9.33-9.86-8.39-15.35,4.62,4.79,8.01,10.89,13.74,14.98l15.11,10.78Z"/>
    <path class="st3" d="M472.97,683.93v4.95s-25.1-2.49-25.1-2.49c-.19-2.99,3.03-3.1,3.04-5.58l22.06,3.13Z"/>
    <path class="st11" d="M385.01,466.91c1.15,2.21,3.27,3.36,5.1,4.99l.11,4.98c.06,1.31,1.17,1.96,2.05,1.62-.94.84-1.7,1.03-3.55.74l-3.59,1.26c.09-2.09-1.54-3.71-3.56-5.07l-7.73-5.23c2.03-1.84,4.95-.9,6.09-3.98.35-.15,1.04-.46,1.39-.36l3.68,1.05Z"/>
    <path class="st3" d="M535.07,577.21c-2.69,1.08-3.71,4.05-7.19,4.11-2.28-4.18-5.82-8.66-2.85-13.95-1.63-1.1-2.01-2.24-2.23-3.83,5.69,3.04,11.98,6.41,12.28,13.67Z"/>
    <path class="st11" d="M474.39,524.14c.33,2.32-.59,6.11.48,8.26-6.6,3.62-1.22,8.12-4.16,9.87-3.99-1.17-6.44-8.48-7.66-14.13l11.35-4Z"/>
    <path class="st7" d="M520.9,639.15c-.89-2.66-3.54-3.19-4.96-5.02.59-2.46,2.1-4.37,2.05-6.93,3.81.34,7.92,0,11.85,2.22.5,5.72-4.39,8.05-8.94,9.73Z"/>
    <path class="st15" d="M281.03,179.2c-5.86-.35-8.63-5.12-13.47-4.17-.23-4.71.61-8.3,3.03-12.25.99,2.51,5.25,2.97,6.44,5.09,2.03,3.59,2.38,7.84,4,11.33Z"/>
    <path class="st15" d="M543.16,621.82c5.57,6.99,15.09,10.34,23.86,11-.11,2.2-2.19,1.8-3.7,2.02-9.58,1.39-20.06-4.04-22.84-11.75,1-.66,1.67-.91,2.68-1.26Z"/>
    <path class="st6" d="M438.09,440.26c-.18.8-.42,2.05-1.11,2.43-.76.42-11.69,1.57-12.99,1.08l-5.71-2.17c-2.03-.77-4.09-1.13-6.31-.69l1.1-4.98c8.56,1.2,15.34,6.1,25.02,4.33Z"/>
    <path class="st14" d="M338.86,439.17c-1.89,1.77-3.51-1.58-6.91-1.19-6.04-6.04-10.83-12.97-14.14-20.91,1.67.11,3.33,1.16,4.44,2.71,4.62,6.47,9.47,12.23,15.58,17.38.66.55.92,1.47,1.04,2Z"/>
    <path class="st7" d="M548.64,749.81c.36.04.95-.02,1.25.19l11.33,7.86-4.53,11.25c-2.75-3.53-4.42-7.86-2.58-13.46-2.75-2.03-5.9-3.06-8.88-2.14-.35-1.39.15-2.45.81-3.05s1.69-.74,2.6-.65Z"/>
    <path class="st1" d="M705.91,613.98c-.29,2.68,2.66,1.35,9.12,6.01,1.98,1.43,4.35,2.15,4.21,5.22-6.87,3.67-15.33-3.22-17.15-11.48l3.82.25Z"/>
    <path class="st8" d="M356.84,346.15c-4.46-1.37-5.59,1.58-9.01,3.89-2.02-3.59-4.15-7.21-5.9-11.05h5.96c5.42.03,7.83,3.01,8.95,7.16Z"/>
    <path class="st11" d="M423.76,695.13c.35,3.01,5.4,3.3,6.21,9.32-4.85-.56-9.32-2.81-13.88-4.71-.23-2.84-2.91-4.57-1.67-7.56l9.35,2.95Z"/>
    <path class="st14" d="M438.94,584.73c-1.21,3.88-6.42.56-11.39,3.16-1.26.66-2.02,2.31-1.98,4.22-2.15-3.14-5.51-6.16-4.5-10.86l17.87,3.48Z"/>
    <path class="st2" d="M485.91,300.15l3.15.76c-.48,2.01,1.24,2.51,2.79,3.33,2.41,1.28,1.51,5.59,6.09,9.82-8.12-2.97-14.39-9.16-17.89-17.12l5.87,3.21Z"/>
    <path class="st15" d="M442.96,705.95l-12.99-1.5c-.81-6.03-5.85-6.32-6.21-9.32,3.38,1.07,7.78,1.89,10.84,4.2,1.86,1.41,2.44,3.69,5.72,3.51,1.62-.08,2.98,1.73,2.63,3.1Z"/>
    <path class="st11" d="M356.84,346.15c.59,2.17,2.22,5.05,3.67,6.76-3.55-.18-5.96,1.9-8.74,4.13l-3.94-7c3.42-2.31,4.54-5.26,9.01-3.89Z"/>
    <path class="st1" d="M501.01,315.18l-3.07-1.13c-4.58-4.23-3.68-8.54-6.09-9.82-1.55-.82-3.27-1.32-2.79-3.33,5.12,1.23,10.57,3.89,12.49,9.45.51,1.47-.5,3.52-.54,4.83Z"/>
    <path class="st11" d="M393.89,306.95c2.72-.25,3.66,2.55,5.07,3.83-2.17.64-4.44.83-6.32,2.65l-10.63-8.29c3.71-2.98,6.37,2.32,11.88,1.81Z"/>
    <path class="st2" d="M316.92,378.2c.14.48.97.96.75,1.75-3.21,2.4-9.1,5.72-9.42,10.3-1.34.07-2.24-.34-2.63-1.15-.29-.62-.44-1.29-.46-2,3.73-3.19,3.55-9.23,11.75-8.89Z"/>
    <path class="st7" d="M372.27,608.08l-.87,8.75c-.25,2.34,1.27,5.23-.81,7.14-.87-2.96-3.19-6.26-3.4-10.2-.14-2.63,3-5.54,5.08-5.69Z"/>
    <path class="st11" d="M509.93,675.85c-.47,1.82,1.14,3.45,1.89,5.19.4,1.01-1.56,2.28-2.33,2.18-2.11-.28-5.52.29-7.36,2-1.3-.64-2.32-1.31-3.01-2.63,4.96-.99,7.42-5.58,10.8-6.73Z"/>
    <path class="st8" d="M531.64,589c-1.78-1.34-2.68-5.68-3.76-7.68,3.49-.05,4.5-3.02,7.19-4.11.85.52,1.57,1.64,1.54,2.47-.13,4.45-5.59,5.21-4.97,9.32Z"/>
    <path class="st15" d="M327.05,543.99c-2.3-.29-4.76.19-6.47,2.21l-4.63-8.18c4.72-.52,9.72,1.27,11.1,5.97Z"/>
    <path class="st15" d="M739.47,682.17c-.62,2.64-.99,4.62-2.22,7.12-2.91-2.99-5.93-4.87-9.54-3.46,2.27-3.53,7.53-5.36,11.75-3.66Z"/>
    <path class="st14" d="M737.25,689.28l-2.51,5.11c.35-4.54-5.28-5.79-11.98-6.41l2.37-2.04,2.58-.12c3.61-1.42,6.62.47,9.54,3.46Z"/>
    <path class="st7" d="M569.12,632.22c-.27-1.33-.93-3.3-2.08-4,1.29.1,2.78.09,3.94-.69,1.04-.69,1.34-2.28,1.09-3.66l8,2.62-4.67,2.83c-2.17,1.31-4.39,2.37-6.28,2.9Z"/>
    <path class="st7" d="M643.78,746.16c-3.41-.79-2.73-5.32-6.7-4.07-.12-.79-.86-2.6.61-3.24,2.26-.98,4.56-1.81,7.44-1.83-.76,3.55-1.88,6.12-1.36,9.14Z"/>
    <path class="st8" d="M409.96,333.32l-.07-4.27c1.77-.02,3.76.19,5.79-.48,1.16-.38,1.43-2.02,1.32-2.98l2.99.86c.85.24,1.36,2.44.69,3.1l-10.73,3.77Z"/>
    <path class="st8" d="M544.24,602.82l-1.37,1.29-2.74-3.35c-2.15-2.63-5.23-5.96-6.39-8.51,7.18-1.61,5.33,5.78,10.5,10.57Z"/>
    <path class="st2" d="M733.92,651.94l-9.02-7.61c4.47-.73,9.75,2.8,9.02,7.61Z"/>
    <path class="st2" d="M731.12,628.02l-3.85.86c.63-2.72-2.71-3.67-7.38-4.17-.31-.04-.69.05-.66.49.14-3.08-2.23-3.8-4.21-5.22-6.46-4.65-9.41-3.33-9.12-6.01,4.73.31,8.43,2.72,12.23,5.82l11,5.84c1.3.69,2.06,1,1.99,2.38Z"/>
    <path class="st15" d="M373.82,401.69c2.16,1.94,4.51,3.52,5.36,6.46-4.35-.29-7.12-5.35-7.07-5.65.12-.74,1.06-1.07,1.71-.8Z"/>
    <path class="st1" d="M727.28,628.89c-2.96.67-5.56-1.86-7.38-4.17,4.67.51,8.01,1.46,7.38,4.17Z"/>
    <path class="st9" d="M418.28,441.59c-1.75,1.8-3.96,2.57-6.3,2.31v-3c2.21-.44,4.27-.08,6.3.69Z"/>
    <path class="st9" d="M262.99,251.67c-.31,2.61-2.24,4.91-5.17,5.21,1.22-2.13,2.31-4.52,5.17-5.21Z"/>
    <polygon class="st6" points="475 684.04 475.03 688.96 472.97 688.88 472.97 683.93 475 684.04"/>
    <path class="st15" d="M457.02,706l-4.03.05c-.36-1.52.28-1.98,1.51-2.14,1.84-.23,2.86.3,2.52,2.09Z"/>
    <path class="st2" d="M697.1,613.02c-.67.28-1.3,1.54-2.59.95-.64-.29-.76-1.38-.56-2,1.08,0,2.44-.09,3.15,1.05Z"/>
    <path class="st15" d="M386.28,413.86c-.7.19-1.85.41-2.62.03-1.15-.56-.32-1.76-.59-2.34,1.4.39,2.49,1.18,3.21,2.31Z"/>
    <path class="st5" d="M354.94,284.12l-1.07-.85c.12-.55.38-1.11.72-1.29.44-.23,1.3.13,1.44.53.31.87-.25,1.65-1.08,1.61Z"/>
    <path class="st1" d="M738.22,631.76c-.25.3-.73.95-1.04,1.12-.54.3-1.06-.09-1.05-.47l.02-1.77c.78.13,1.52.53,2.07,1.12Z"/>
    <path class="st3" d="M511.97,294.9l-1.23,5.26c-6.08-3.01-14.24-7.21-15.97-12.08,3.11,2.31,6.65,2.77,11.22,3.2l5.98,3.61Z"/>
    <path class="st13" d="M550.36,535.13c-1.42,1.38,4.39,15.5,11.39,15.28,2.39-1.08,5.09-6.1,9.16-4.12.29,1.56.19,4.01,1.1,5.81,4.47-.11,7.08-3.31,10.12-5.81.89-.73,3.42-.39,3.68.42.21.65.04,2.32.01,3.22-1.26,3.06-.37,5.51,2.36,7.04-.27,4.4,1.2,7.31,3.37,10.98l-7.44-2.94-5.48,5.58c-1.1,1.12-1.01,3.34-.15,4.26.54.57,2.38,1.32,2.85.68.91-1.85,1.51-3.31,2.78-4.05,1.07-.62,3.01-.88,3.98.25l4.7,5.44c1.11,1.29,1.54,3.02,1.28,4.26-.19.88-2.29,2.55-2.77,1.85-1.16-1.7-1.12-3.62-1.37-5.19-5.17-.37-7.81,2.07-9.51,6.44-.35.91-2.73,2.08-2.26,2.92.64,1.16,2.11,2.16,3.94,1.64,1.67-.47,2.43-2,5.48-1.82-1.09,1.54.18,5.66,2.52,4.94,1.26-1.69,3.63-6.67,6.31-5.51,2.45,1.06,4.92,12.07,3.36,13.28-.67.52-2.03.92-3.05,1.3l-.6.44c.9,2.87-2.42,5.89-3.06,8.08.46,3.32,5.64,4.28,8.14,4.54l1.11,5.12c.63-.09,1.27-.11,1.24-.1l.47-6.12c.96,4.74,6.06,3.11,6.97,4.87,1.13,2.2,2.98,3.8,4.38,5.5l11.03,13.35c-2.21,3.07-4.94,2.33-8.55,1.98.75,1.97,1.26,5.34-.42,6.47-2.55,1.7-5.95-.02-8.1-1.34-5.02-3.06-6.56,3.95-9.77,3.08-1.71-.46-2.24-3.08-4.57-4.01-.32-2.58.07-5.79,2.42-8.2-1.22-2.41-1.58-6.08-3.27-7.98-8.49-5.58-9.03-15.55-20.42-20.64.48-2.76.36-4.74-.84-6.64-2.73-4.29-6.63.39-10.3-7.1-1.8-3.67-.79-5.87-.81-9.38-.03-4.55-6.04-7.69-8.24-10.4-1.98-2.45-2.47-3.99-5.53-5.09-5.11-1.84-3.58-8.93-11.47-12.02-1.2-3.26-3.52-4.13-7.43-3.62l-.69-8.35c-3.99,0-5.38-2.47-7.77-4.54-1.83-1.59-4.11-2.39-4-4.75.07-1.38,1.19-5.35,2.99-4.55,3.97,1.77,8.42.44,11.87,1.78,6.14,2.37,12.08,4.9,18.81,3.5ZM595.95,600.43c.63-3.27-.88-7.16-5.33-7.58l1.99,5.31c.46,1.23.15,2.24.91,2.75.42.28,1.25.23,1.68.14l.75-.63Z"/>
    <path class="st12" d="M462.67,347.28c4.08,7.36,7.37,15.21,12.54,22.26l1.06.31c-.45,7.22.91,14.19,2.6,21.08,2.83,11.56,7.56,22.65,16.18,31.02,1.44,4.52,5.46,7.54,8.51,11.49,6.78,8.77,15.88,14.79,24.41,20.99l7.8,5.66c3.88,5.38,7.06,9.44,3.2,8.26-.46-.14-1.39.28-1.89.43l-10.07-2.95-6.6-3.24c-6.54-3.22-11.82,9.9-6.76,21.82s13.9,20.08,23.37,27.72l8.84,7.13c1.2.97,3.32,4.29,1.86,5.28-3.78,2.57-8.22.34-11.72-.45-2.12-3.41-6.49-4.5-9.79-6.27-.86-.46-2.32-1.45-3.05-2.13-6.17-5.75-12.2-11.8-17.01-18.75-5.31-10.15-6.93-22.06-1.55-32.45,1.62-1.04,3.26-2.69,4.43-4.31.41-.56,1.81-1.02,2.94-1.38-.59-1.62-1.99-2.15-2.92-2.91l-4.36-3.58-7.78-8.33c-17.07-18.29-28.64-36.75-30.45-62.2-.42-5.92-2.69-10.91-4.28-16.01l-2.11-6.74-3.97-13.21c-.65-2.15-.53-4.43.79-5.81l5.77,7.28Z"/>
    <path class="st6" d="M504.81,427.8c2.55,2.78,5.31,5.3,8.27,8.16l14.76,14.24c1.22,1.18,1.17,2.64.13,4.23-8.53-6.19-17.63-12.22-24.41-20.99-3.05-3.95-7.07-6.97-8.51-11.49,4.54,1.36,6.11,6.9,9.76,5.85Z"/>
    <path class="st2" d="M456.91,340c-1.32,1.39-1.44,3.66-.79,5.81l3.97,13.21c-1.7.17-2.87-2.43-4.13-2.68-.94-2.23-.74-4.66-1.18-7.11-.77-4.33-4.21-7.01-8.73-6.25-.82-2-.8-4.53.24-5.79l4.88-5.89c1.1-.57,2.09-1.16,3.27-1.33l2.47,10.03Z"/>
    <path class="st14" d="M504.81,427.8c-3.65,1.05-5.22-4.49-9.76-5.85-8.62-8.37-13.34-19.46-16.18-31.02.7-.34,2.89-.01,3.05,1.04.63,4.38,3.13,7.46,4.72,11.19,2.49,5.83,5.39,10.72,9.77,15.5l8.4,9.15Z"/>
    <path class="st14" d="M476.28,369.85l-1.06-.31c-5.18-7.06-8.47-14.9-12.54-22.26,1.89.13,3.34-.51,4.95-1.48.27,2.88,1.06,5.06,2.44,7.02,2.64,3.74,6.3,15.57,6.21,17.03Z"/>
    <path class="st13" d="M451.16,331.29l-4.88,5.89-1.41-.35c.29-1.11.44-2.26.36-3.32.96-2.54,3.67-2.68,5.93-2.23Z"/>
    <path class="st12" d="M585.12,684.71l.03,1.43-6.12,3.71c-12.23,4.45-25.02,2.66-37.15-1.96l-11.48-10.27c-5.55-6.45-8.42-14.66-4.57-22.31.69.02,1.53.54,1.58,1.22.22,3.02,2.27,4.24,3.83,6.25,4.31,5.55,8.71,10.87,15.33,13.66,7.81,3.29,15.77,5.41,24.39,5.12,5.18-.18,10.31.29,14.15,3.17Z"/>
    <path class="st14" d="M462.19,365.76c1.59,5.1,3.86,10.09,4.28,16.01,1.82,25.45,13.38,43.91,30.45,62.2l7.78,8.33-.98,3.73-4.6-.99-21.48-25.65c-5.74-6.86-11-14.47-12.55-23.36l-3.13-17.99-.78-3c-1.55-5.98-3.55-11.65-7.25-16.7,2.53.41,3.68-3.24,8.26-2.58Z"/>
    <path class="st8" d="M611.11,677.45l-8.14,7.46c-2.4,1.99-4.11,3.87-4.12,6.99l-8.08-3.7c-1.92-.88-4.6-.13-5.61-2.06l-.03-1.43c.46.17,1.04.22,1.34.06s.51-1.14.57-2.06c-3.32-2.77-7.55-2.63-11.85-3.1l-10.29-4.43c1.26-2.02,2.06-6.09,4.81-6.49,5.45-.79,11.28,1.87,15.81,4.62,3.41,2.07,6.06,1.57,9.56.91,5.78-1.09,11.37,1.86,16.03,3.22Z"/>
    <path class="st7" d="M564.89,675.19l10.29,4.43c4.31.47,8.53.33,11.85,3.1-.06.91-.28,1.9-.57,2.06s-.87.1-1.34-.06c-3.84-2.88-8.98-3.35-14.15-3.17-8.62.3-16.58-1.82-24.39-5.12-6.62-2.79-11.02-8.12-15.33-13.66-1.56-2.01-3.61-3.22-3.83-6.25-.05-.68-.88-1.2-1.58-1.22l1.66-3.29c.32-.63,2.36-1.32,3.08-.52l9.96,10.88c3.43,3.75,6.41,6.31,11.29,8.08l13.06,4.75Z"/>
    <path class="st14" d="M527.01,465.83c.02.42,0,1-.26,1.49-.28.54-1.13.83-1.85.71l-7.55-.77c-.5,4.66-1.43,9.77.27,14.13,3.81,9.79,10,18.24,17.15,25.77,1.57,1.65,2.74,2.76,2.25,4.95-9.47-7.64-18.43-16.08-23.37-27.72s.21-25.03,6.76-21.82l6.6,3.24Z"/>
    <path class="st11" d="M579.03,689.85c0,1.39.18,4.11-.84,5.42-9.84,3.17-20.57,3.38-30.39-.02l-5.92-7.37c12.13,4.62,24.92,6.41,37.15,1.96Z"/>
    <path class="st15" d="M620.36,680.16c-5.29,1.36-3.55,6.5-8.07,10.13-2.21,1.77-3.47,4.25-3.21,6.73l-10.23-5.12c.02-3.12,1.72-5,4.12-6.99l8.14-7.46,9.25,2.71Z"/>
    <path class="st15" d="M509.06,455.88l-.03,4.29c-1.18,1.62-2.82,3.27-4.43,4.31-2.18-3.01-4.86-5.87-5.48-9.44l4.6.99.98-3.73,4.36,3.58Z"/>
    <path class="st11" d="M523.16,515.68c-4.17,1.19-6.24-1.28-8.48-4.26-3.57-4.74-7.63-8.81-8.53-14.5,4.81,6.95,10.84,13,17.01,18.75Z"/>
    <path class="st15" d="M537.08,468.78c.17,3.67-10.9,3.24-12.18-.75.72.12,1.58-.17,1.85-.71.26-.49.28-1.07.26-1.49l10.07,2.95Z"/>
    <path class="st11" d="M536,524.08l-4,.05c-3.71.05-6.26-2.91-5.79-6.32,3.3,1.76,7.67,2.86,9.79,6.27Z"/>
    <path class="st5" d="M565.27,646.55c.07,1.97-.79,2.53-1.77,2.5-.88-.03-4.48-2.63-4.46-2.59-.34-.83,2.5-2.85,4.44-2.62.77.09,1.7.61,1.78,2.7Z"/>
    <path class="st11" d="M715.11,675.8c-1.56,7.37-6.74,12.59-13.34,16.12-1.98,1.06-6.26,8.35-3.73,8.43-1.56.79-3.06,1.36-4.89.87-1.03.5-2.57-1.13-2.04-1.74,2.55-1.17,3.72-2.79,4.07-5.46l2.87-21.89,1.36-.8c3.47-.78,7.52-2.34,11.37-1.14,2.55.8,3.18,4.3,4.32,5.6Z"/>
    <path class="st7" d="M446.28,337.18c-1.04,1.26-1.05,3.79-.24,5.79,4.52-.76,7.96,1.92,8.73,6.25.44,2.45.24,4.88,1.18,7.11-4.5-.9-4.7-5.14-10-2.27-2.5-1.81-1.93-5.59-4.98-7.01.8-.08,1.03-.83.97-1.53-.05-.57-.22-1.04-.46-1.63s-.24-1.38-.3-2.01l-.14-1.64c.99.19,2.32-.15,2.76-.96.38-.7.26-1.69.03-2.36.35-.22.66-.19,1.03-.1l1.41.35Z"/>
    <path class="st9" d="M453.93,368.34c3.69,5.04,5.7,10.72,7.25,16.7l-3.93.83c-2.43-6.08-5.65-11.4-10.72-15.44-1.45-3.58-.65-7.07,1.86-9.64l5.54,7.56Z"/>
    <path class="st6" d="M455.96,356.33c1.26.25,2.43,2.86,4.13,2.68l2.11,6.74c-4.58-.66-5.73,2.99-8.26,2.58l-5.54-7.56c-1.38-1.89-2.1-4.6-2.44-6.71,5.3-2.88,5.51,1.36,10,2.27Z"/>
    <path class="st9" d="M440.98,347.06c-.93-.43-.98-.73-1.07-1.57-.14-1.21.61-1.74,1.58-1.59.24.59.41,1.06.46,1.63.06.7-.18,1.45-.97,1.53Z"/>
    <path class="st9" d="M329.54,356.84c-1.4,1.85-2.63,5.94-4.58,6.96-2.97,1.56-5.18-1.28-6.02-3.14-1.09-2.4.04-4.97-.39-7.4-.93-5.24-.99-10.54,4.8-12.25l6.19,15.83Z"/>
    <path class="st9" d="M323.13,339.93c-1.06.65-4.37.64-4.8-1.09-.87-3.5.61-7.2,2.07-9.99,1.23,3.57,2.51,7.27,2.73,11.08Z"/>
    <path class="st9" d="M381.33,465.87c-.35-.1-1.04.21-1.39.36l-.07-1.37,1.46,1.01Z"/>
    <path class="st9" d="M446.69,559c-1.13,1.53-5.54-1.91-4.66-3.8,2.02-1.08,6.29,1.59,4.66,3.8Z"/>
    <path class="st7" d="M392.27,478.5c-.88.34-1.99-.31-2.05-1.62l-.11-4.98c1.25,1.11,4.32,1.72,4.77,4.18.26,1.42-1.94,1.84-2.6,2.42Z"/>
    <path class="st15" d="M725.14,685.95l-2.37,2.04-1.63.93-8.97,4.31-14.12,7.12c-2.53-.08,1.75-7.37,3.73-8.43,6.59-3.53,11.78-8.75,13.34-16.12,1.16,1.33,5.28,1.23,5.49,4.2.1,1.43-.46,3.35.44,4.5,1.02,1.31,2.56,1.55,4.1,1.45Z"/>
    <path class="st5" d="M698.06,672.14c.32-.3.82-.68,1.36-.8l-1.36.8Z"/>
    <path class="st8" d="M443.84,336.94c.23.67.35,1.66-.03,2.36-.44.81-1.77,1.14-2.76.96-.41-.83-.48-2.46.5-3.02.53-.3,1.63-.31,2.28-.29Z"/>
    <path class="st8" d="M359.37,557.91l.46,2.28.34,5.84c-1.22.06-2.49.27-3.46-.05l-2.65-.89c.51-2.63,1.53-5.39,3.75-6.96.39.03,1.26.03,1.56-.21Z"/>
    <path class="st3" d="M353.09,564.87c-1.7,2.34-4.31,1.29-6.38.11s-2.16-3.03-2.97-5.06l9.35,4.96Z"/>
    <path class="st8" d="M415.14,679.01c-.74-.29-2.6.64-3.65-.52-3.83-4.26-11.13-5.16-14.45-.71-.14.19-.6.25-.89.14-.1-1.48-.86-4.71.52-6.2,4.58-4.92,11.75-2.74,15.6,1.96,1.54,1.88,3.37,2.93,2.86,5.33Z"/>
    <path class="st11" d="M515.89,735.02c-.55.11-1.35.19-1.87-.5-.4-.52-.04-1.4.92-1.43.17.53,1.27.88.95,1.93Z"/>
    <path class="st7" d="M360.17,566.03l-.34-5.84c2.49-.96,5.27-1.98,7.67-.28,2.12,1.49,3.2,4.13,2.09,7.05-.62,1.63-2.52,4.31-5.32,3.63-1.85-.45-4.01-3.07-4.1-4.55Z"/>
    <path class="st14" d="M509.04,460.17l.03-4.29c.93.76,2.33,1.3,2.92,2.91-1.13.36-2.54.82-2.94,1.38Z"/>
  </g>
</svg>